<svg width="36" height="36" viewBox="0 0 36 36" fill="none" xmlns="http://www.w3.org/2000/svg">
<path fill-rule="evenodd" clip-rule="evenodd" d="M27.9436 5.35378L33.8566 15.6462H33.8779C34.7074 17.1013 34.7074 18.8987 33.8779 20.3538L27.9649 30.6462C27.1141 32.1013 25.5614 33 23.9024 33H12.0976C10.4173 33 8.86465 32.1013 8.03513 30.6462L2.12214 20.3538C1.29262 18.8987 1.29262 17.1013 2.12214 15.6462L8.01386 5.35378C8.86465 3.89872 10.4173 3 12.0764 3H23.8811C25.5614 3 27.1141 3.89872 27.9436 5.35378Z" fill="#6DB23F"/>
<path fill-rule="evenodd" clip-rule="evenodd" d="M19.192 17.6015V10.3476C19.192 9.64148 18.6177 9.06372 17.9158 9.06372C17.2138 9.06372 16.6396 9.64148 16.6396 10.3476V17.6015C16.6396 17.9439 16.7885 18.2648 17.0223 18.5002C17.2352 18.7356 17.5754 18.8854 17.9158 18.8854C18.6177 18.8854 19.192 18.3077 19.192 17.6015ZM18.3625 26.7599C20.6383 26.6315 22.7228 25.6258 24.2542 23.9354H24.2968C27.4233 20.4261 27.1469 15.0124 23.6586 11.8455C23.1269 11.3533 22.3398 11.3961 21.8507 11.9311C21.3614 12.466 21.404 13.2792 21.9358 13.7499C24.3818 15.9753 24.5732 19.7627 22.3824 22.2235C21.319 23.4004 19.8514 24.1065 18.2561 24.1921C16.6609 24.2777 15.1507 23.7214 13.9596 22.6515C11.5137 20.4261 11.3222 16.6386 13.513 14.1779C13.6831 13.9853 13.8533 13.8141 14.0447 13.6429C14.5978 13.1722 14.6615 12.359 14.1936 11.8241C13.7257 11.2892 12.9174 11.2249 12.3857 11.6957C12.1091 11.9311 11.8327 12.1879 11.5986 12.466C8.47198 15.9753 8.74858 21.389 12.2368 24.5559C13.8107 25.9896 15.8101 26.7599 17.9158 26.7599H18.3625Z" fill="#F0F0F0"/>
</svg>
