<svg width="159" height="33" viewBox="0 0 159 33" fill="none" xmlns="http://www.w3.org/2000/svg">
<rect x="0.5" y="1.25" width="158" height="31" rx="15.5" stroke="#394871"/>
<rect x="0.5" y="1.25" width="158" height="31" rx="15.5" stroke="url(#paint0_radial_6834_97867)"/>
<path fill-rule="evenodd" clip-rule="evenodd" d="M9.33301 14.3258C11.4542 14.3258 13.5754 12.2046 13.5754 10.0833C13.5754 12.2046 15.6966 14.3258 17.8179 14.3258C15.6966 14.3258 13.5754 16.447 13.5754 18.5682C13.5754 16.447 11.4542 14.3258 9.33301 14.3258Z" fill="#FFC147"/>
<path fill-rule="evenodd" clip-rule="evenodd" d="M17.8174 16.1439C19.0295 16.1439 20.2416 14.9318 20.2416 13.7197C20.2416 14.9318 21.4537 16.1439 22.6659 16.1439C21.4537 16.1439 20.2416 17.3561 20.2416 18.5682C20.2416 17.3561 19.0295 16.1439 17.8174 16.1439Z" fill="#FFC147"/>
<path fill-rule="evenodd" clip-rule="evenodd" d="M15.9994 18.5682C15.9994 19.7803 14.7873 20.9924 13.5752 20.9924C14.7873 20.9924 15.9994 22.2046 15.9994 23.4167C15.9994 22.2046 17.2116 20.9924 18.4237 20.9924C17.2116 20.9924 15.9994 19.7803 15.9994 18.5682Z" fill="#FFC147"/>
<path d="M29.032 21.75V13.29H34.384V14.202H30.148V17.034H34.108V17.946H30.148V21.75H29.032ZM38.0185 21.858C37.4265 21.858 36.9145 21.734 36.4825 21.486C36.0505 21.23 35.7145 20.87 35.4745 20.406C35.2345 19.934 35.1145 19.374 35.1145 18.726C35.1145 18.086 35.2345 17.534 35.4745 17.07C35.7145 16.598 36.0505 16.238 36.4825 15.99C36.9145 15.734 37.4265 15.606 38.0185 15.606C38.6105 15.606 39.1225 15.734 39.5545 15.99C39.9945 16.238 40.3305 16.598 40.5625 17.07C40.8025 17.534 40.9225 18.086 40.9225 18.726C40.9225 19.374 40.8025 19.934 40.5625 20.406C40.3305 20.87 39.9945 21.23 39.5545 21.486C39.1225 21.734 38.6105 21.858 38.0185 21.858ZM38.0185 20.994C38.5625 20.994 38.9985 20.802 39.3265 20.418C39.6545 20.034 39.8185 19.47 39.8185 18.726C39.8185 17.982 39.6545 17.422 39.3265 17.046C38.9985 16.67 38.5625 16.482 38.0185 16.482C37.4665 16.482 37.0265 16.67 36.6985 17.046C36.3785 17.422 36.2185 17.982 36.2185 18.726C36.2185 19.47 36.3785 20.034 36.6985 20.418C37.0265 20.802 37.4665 20.994 38.0185 20.994ZM42.3766 21.75V17.19C42.3766 16.95 42.3686 16.706 42.3526 16.458C42.3446 16.202 42.3246 15.954 42.2926 15.714H43.3486L43.4806 17.226L43.3006 17.238C43.3806 16.87 43.5166 16.566 43.7086 16.326C43.9086 16.078 44.1446 15.898 44.4166 15.786C44.6966 15.666 44.9846 15.606 45.2806 15.606C45.4086 15.606 45.5166 15.61 45.6046 15.618C45.6926 15.626 45.7806 15.646 45.8686 15.678L45.8446 16.65C45.7246 16.602 45.6126 16.574 45.5086 16.566C45.4126 16.55 45.2926 16.542 45.1486 16.542C44.7966 16.542 44.4926 16.622 44.2366 16.782C43.9886 16.942 43.7966 17.154 43.6606 17.418C43.5326 17.682 43.4686 17.966 43.4686 18.27V21.75H42.3766ZM52.25 21.858C51.618 21.858 51.138 21.686 50.81 21.342C50.49 20.99 50.33 20.462 50.33 19.758V16.554H49.154V15.714H50.33V14.094L51.422 13.794V15.714H53.126V16.554H51.422V19.662C51.422 20.126 51.502 20.458 51.662 20.658C51.83 20.85 52.07 20.946 52.382 20.946C52.542 20.946 52.678 20.934 52.79 20.91C52.91 20.878 53.018 20.842 53.114 20.802V21.702C52.994 21.75 52.854 21.786 52.694 21.81C52.542 21.842 52.394 21.858 52.25 21.858ZM56.9608 21.858C56.0008 21.858 55.2408 21.582 54.6808 21.03C54.1288 20.478 53.8528 19.718 53.8528 18.75C53.8528 18.11 53.9728 17.558 54.2128 17.094C54.4608 16.622 54.8008 16.258 55.2328 16.002C55.6648 15.738 56.1688 15.606 56.7448 15.606C57.2968 15.606 57.7648 15.726 58.1488 15.966C58.5328 16.198 58.8248 16.53 59.0248 16.962C59.2248 17.394 59.3248 17.906 59.3248 18.498V18.858H54.7048V18.21H58.5808L58.3768 18.366C58.3768 17.742 58.2368 17.258 57.9568 16.914C57.6848 16.57 57.2808 16.398 56.7448 16.398C56.1608 16.398 55.7088 16.602 55.3888 17.01C55.0688 17.41 54.9088 17.958 54.9088 18.654V18.762C54.9088 19.498 55.0888 20.054 55.4488 20.43C55.8168 20.806 56.3248 20.994 56.9728 20.994C57.3328 20.994 57.6688 20.942 57.9808 20.838C58.2928 20.734 58.5928 20.562 58.8808 20.322L59.2408 21.078C58.9688 21.326 58.6288 21.518 58.2208 21.654C57.8208 21.79 57.4008 21.858 56.9608 21.858ZM63.3438 21.858C62.7438 21.858 62.2238 21.734 61.7838 21.486C61.3438 21.23 60.9998 20.866 60.7518 20.394C60.5118 19.914 60.3918 19.346 60.3918 18.69C60.3918 18.042 60.5158 17.49 60.7638 17.034C61.0118 16.57 61.3558 16.218 61.7958 15.978C62.2358 15.73 62.7518 15.606 63.3438 15.606C63.7358 15.606 64.1158 15.674 64.4838 15.81C64.8518 15.938 65.1518 16.126 65.3838 16.374L65.0118 17.142C64.7798 16.918 64.5238 16.754 64.2438 16.65C63.9638 16.538 63.6878 16.482 63.4158 16.482C62.8238 16.482 62.3598 16.674 62.0238 17.058C61.6878 17.434 61.5198 17.982 61.5198 18.702C61.5198 19.43 61.6878 19.99 62.0238 20.382C62.3598 20.774 62.8238 20.97 63.4158 20.97C63.6798 20.97 63.9518 20.918 64.2318 20.814C64.5118 20.71 64.7718 20.546 65.0118 20.322L65.3838 21.078C65.1438 21.334 64.8358 21.53 64.4598 21.666C64.0918 21.794 63.7198 21.858 63.3438 21.858ZM66.7167 21.75V12.918H67.8087V17.022H67.6527C67.8287 16.558 68.1127 16.206 68.5047 15.966C68.8967 15.726 69.3487 15.606 69.8607 15.606C70.5887 15.606 71.1247 15.802 71.4687 16.194C71.8207 16.586 71.9967 17.178 71.9967 17.97V21.75H70.9047V18.03C70.9047 17.494 70.8007 17.106 70.5927 16.866C70.3847 16.618 70.0447 16.494 69.5727 16.494C69.0447 16.494 68.6167 16.658 68.2887 16.986C67.9687 17.314 67.8087 17.75 67.8087 18.294V21.75H66.7167ZM76.9472 24.342V17.142C76.9472 16.91 76.9392 16.674 76.9232 16.434C76.9072 16.194 76.8832 15.954 76.8512 15.714H77.9072L78.0392 17.106H77.9072C78.0272 16.642 78.2832 16.278 78.6752 16.014C79.0672 15.742 79.5352 15.606 80.0792 15.606C80.6152 15.606 81.0832 15.73 81.4832 15.978C81.8832 16.226 82.1912 16.586 82.4072 17.058C82.6312 17.522 82.7432 18.078 82.7432 18.726C82.7432 19.374 82.6312 19.934 82.4072 20.406C82.1912 20.878 81.8832 21.238 81.4832 21.486C81.0832 21.734 80.6152 21.858 80.0792 21.858C79.5432 21.858 79.0792 21.726 78.6872 21.462C78.3032 21.19 78.0432 20.826 77.9072 20.37H78.0392V24.342H76.9472ZM79.8272 20.994C80.3792 20.994 80.8192 20.802 81.1472 20.418C81.4752 20.034 81.6392 19.47 81.6392 18.726C81.6392 17.982 81.4752 17.422 81.1472 17.046C80.8192 16.67 80.3792 16.482 79.8272 16.482C79.2752 16.482 78.8352 16.67 78.5072 17.046C78.1872 17.422 78.0272 17.982 78.0272 18.726C78.0272 19.47 78.1872 20.034 78.5072 20.418C78.8352 20.802 79.2752 20.994 79.8272 20.994ZM84.2008 21.75V17.19C84.2008 16.95 84.1928 16.706 84.1768 16.458C84.1688 16.202 84.1488 15.954 84.1168 15.714H85.1728L85.3048 17.226L85.1248 17.238C85.2048 16.87 85.3408 16.566 85.5328 16.326C85.7328 16.078 85.9688 15.898 86.2408 15.786C86.5208 15.666 86.8088 15.606 87.1048 15.606C87.2328 15.606 87.3408 15.61 87.4288 15.618C87.5168 15.626 87.6048 15.646 87.6928 15.678L87.6688 16.65C87.5488 16.602 87.4368 16.574 87.3328 16.566C87.2368 16.55 87.1168 16.542 86.9728 16.542C86.6208 16.542 86.3168 16.622 86.0608 16.782C85.8128 16.942 85.6208 17.154 85.4848 17.418C85.3568 17.682 85.2928 17.966 85.2928 18.27V21.75H84.2008ZM91.1162 21.858C90.5242 21.858 90.0122 21.734 89.5802 21.486C89.1482 21.23 88.8122 20.87 88.5722 20.406C88.3322 19.934 88.2122 19.374 88.2122 18.726C88.2122 18.086 88.3322 17.534 88.5722 17.07C88.8122 16.598 89.1482 16.238 89.5802 15.99C90.0122 15.734 90.5242 15.606 91.1162 15.606C91.7082 15.606 92.2202 15.734 92.6522 15.99C93.0922 16.238 93.4282 16.598 93.6602 17.07C93.9002 17.534 94.0202 18.086 94.0202 18.726C94.0202 19.374 93.9002 19.934 93.6602 20.406C93.4282 20.87 93.0922 21.23 92.6522 21.486C92.2202 21.734 91.7082 21.858 91.1162 21.858ZM91.1162 20.994C91.6602 20.994 92.0962 20.802 92.4242 20.418C92.7522 20.034 92.9162 19.47 92.9162 18.726C92.9162 17.982 92.7522 17.422 92.4242 17.046C92.0962 16.67 91.6602 16.482 91.1162 16.482C90.5642 16.482 90.1242 16.67 89.7962 17.046C89.4762 17.422 89.3162 17.982 89.3162 18.726C89.3162 19.47 89.4762 20.034 89.7962 20.418C90.1242 20.802 90.5642 20.994 91.1162 20.994ZM95.7636 21.75V16.554H94.5876V15.714H96.0636L95.7636 15.99V15.018C95.7636 14.314 95.9396 13.782 96.2916 13.422C96.6436 13.054 97.1556 12.87 97.8276 12.87C97.9876 12.87 98.1556 12.882 98.3316 12.906C98.5156 12.93 98.6676 12.97 98.7876 13.026V13.914C98.6916 13.874 98.5716 13.842 98.4276 13.818C98.2836 13.794 98.1436 13.782 98.0076 13.782C97.7676 13.782 97.5596 13.83 97.3836 13.926C97.2076 14.022 97.0756 14.166 96.9876 14.358C96.8996 14.542 96.8556 14.786 96.8556 15.09V15.942L96.6876 15.714H98.5236V16.554H96.8556V21.75H95.7636ZM102.148 21.858C101.188 21.858 100.428 21.582 99.8683 21.03C99.3163 20.478 99.0403 19.718 99.0403 18.75C99.0403 18.11 99.1603 17.558 99.4003 17.094C99.6483 16.622 99.9883 16.258 100.42 16.002C100.852 15.738 101.356 15.606 101.932 15.606C102.484 15.606 102.952 15.726 103.336 15.966C103.72 16.198 104.012 16.53 104.212 16.962C104.412 17.394 104.512 17.906 104.512 18.498V18.858H99.8923V18.21H103.768L103.564 18.366C103.564 17.742 103.424 17.258 103.144 16.914C102.872 16.57 102.468 16.398 101.932 16.398C101.348 16.398 100.896 16.602 100.576 17.01C100.256 17.41 100.096 17.958 100.096 18.654V18.762C100.096 19.498 100.276 20.054 100.636 20.43C101.004 20.806 101.512 20.994 102.16 20.994C102.52 20.994 102.856 20.942 103.168 20.838C103.48 20.734 103.78 20.562 104.068 20.322L104.428 21.078C104.156 21.326 103.816 21.518 103.408 21.654C103.008 21.79 102.588 21.858 102.148 21.858ZM107.979 21.858C107.491 21.858 107.035 21.794 106.611 21.666C106.195 21.538 105.851 21.354 105.579 21.114L105.927 20.358C106.223 20.582 106.547 20.754 106.899 20.874C107.259 20.986 107.627 21.042 108.003 21.042C108.459 21.042 108.803 20.958 109.035 20.79C109.275 20.622 109.395 20.398 109.395 20.118C109.395 19.894 109.319 19.714 109.167 19.578C109.015 19.442 108.775 19.342 108.447 19.278L107.307 19.05C106.795 18.93 106.407 18.738 106.143 18.474C105.887 18.202 105.759 17.854 105.759 17.43C105.759 17.078 105.855 16.766 106.047 16.494C106.239 16.214 106.511 15.998 106.863 15.846C107.223 15.686 107.643 15.606 108.123 15.606C108.563 15.606 108.971 15.67 109.347 15.798C109.731 15.926 110.047 16.114 110.295 16.362L109.935 17.094C109.687 16.878 109.407 16.714 109.095 16.602C108.791 16.482 108.479 16.422 108.159 16.422C107.695 16.422 107.351 16.514 107.127 16.698C106.903 16.874 106.791 17.106 106.791 17.394C106.791 17.61 106.859 17.79 106.995 17.934C107.131 18.07 107.351 18.174 107.655 18.246L108.795 18.474C109.331 18.586 109.735 18.77 110.007 19.026C110.279 19.282 110.415 19.622 110.415 20.046C110.415 20.422 110.311 20.746 110.103 21.018C109.903 21.29 109.619 21.498 109.251 21.642C108.891 21.786 108.467 21.858 107.979 21.858ZM113.944 21.858C113.456 21.858 113 21.794 112.576 21.666C112.16 21.538 111.816 21.354 111.544 21.114L111.892 20.358C112.188 20.582 112.512 20.754 112.864 20.874C113.224 20.986 113.592 21.042 113.968 21.042C114.424 21.042 114.768 20.958 115 20.79C115.24 20.622 115.36 20.398 115.36 20.118C115.36 19.894 115.284 19.714 115.132 19.578C114.98 19.442 114.74 19.342 114.412 19.278L113.272 19.05C112.76 18.93 112.372 18.738 112.108 18.474C111.852 18.202 111.724 17.854 111.724 17.43C111.724 17.078 111.82 16.766 112.012 16.494C112.204 16.214 112.476 15.998 112.828 15.846C113.188 15.686 113.608 15.606 114.088 15.606C114.528 15.606 114.936 15.67 115.312 15.798C115.696 15.926 116.012 16.114 116.26 16.362L115.9 17.094C115.652 16.878 115.372 16.714 115.06 16.602C114.756 16.482 114.444 16.422 114.124 16.422C113.66 16.422 113.316 16.514 113.092 16.698C112.868 16.874 112.756 17.106 112.756 17.394C112.756 17.61 112.824 17.79 112.96 17.934C113.096 18.07 113.316 18.174 113.62 18.246L114.76 18.474C115.296 18.586 115.7 18.77 115.972 19.026C116.244 19.282 116.38 19.622 116.38 20.046C116.38 20.422 116.276 20.746 116.068 21.018C115.868 21.29 115.584 21.498 115.216 21.642C114.856 21.786 114.432 21.858 113.944 21.858ZM117.869 21.75V15.714H118.961V21.75H117.869ZM117.773 14.394V13.218H119.069V14.394H117.773ZM123.331 21.858C122.739 21.858 122.227 21.734 121.795 21.486C121.363 21.23 121.027 20.87 120.787 20.406C120.547 19.934 120.427 19.374 120.427 18.726C120.427 18.086 120.547 17.534 120.787 17.07C121.027 16.598 121.363 16.238 121.795 15.99C122.227 15.734 122.739 15.606 123.331 15.606C123.923 15.606 124.435 15.734 124.867 15.99C125.307 16.238 125.643 16.598 125.875 17.07C126.115 17.534 126.235 18.086 126.235 18.726C126.235 19.374 126.115 19.934 125.875 20.406C125.643 20.87 125.307 21.23 124.867 21.486C124.435 21.734 123.923 21.858 123.331 21.858ZM123.331 20.994C123.875 20.994 124.311 20.802 124.639 20.418C124.967 20.034 125.131 19.47 125.131 18.726C125.131 17.982 124.967 17.422 124.639 17.046C124.311 16.67 123.875 16.482 123.331 16.482C122.779 16.482 122.339 16.67 122.011 17.046C121.691 17.422 121.531 17.982 121.531 18.726C121.531 19.47 121.691 20.034 122.011 20.418C122.339 20.802 122.779 20.994 123.331 20.994ZM127.701 21.75V17.142C127.701 16.91 127.693 16.674 127.677 16.434C127.661 16.194 127.637 15.954 127.605 15.714H128.661L128.781 17.01H128.637C128.821 16.554 129.105 16.206 129.489 15.966C129.873 15.726 130.321 15.606 130.833 15.606C131.545 15.606 132.081 15.802 132.441 16.194C132.801 16.578 132.981 17.178 132.981 17.994V21.75H131.889V18.054C131.889 17.502 131.781 17.106 131.565 16.866C131.349 16.618 131.013 16.494 130.557 16.494C130.013 16.494 129.581 16.658 129.261 16.986C128.949 17.314 128.793 17.758 128.793 18.318V21.75H127.701ZM137.071 21.858C136.543 21.858 136.079 21.734 135.679 21.486C135.279 21.238 134.967 20.878 134.743 20.406C134.519 19.934 134.407 19.374 134.407 18.726C134.407 18.078 134.519 17.522 134.743 17.058C134.967 16.586 135.279 16.226 135.679 15.978C136.079 15.73 136.543 15.606 137.071 15.606C137.607 15.606 138.071 15.742 138.463 16.014C138.863 16.278 139.127 16.642 139.255 17.106H139.111L139.243 15.714H140.299C140.275 15.954 140.251 16.194 140.227 16.434C140.211 16.674 140.203 16.91 140.203 17.142V21.75H139.111V20.37H139.243C139.115 20.826 138.851 21.19 138.451 21.462C138.059 21.726 137.599 21.858 137.071 21.858ZM137.323 20.994C137.867 20.994 138.303 20.802 138.631 20.418C138.959 20.034 139.123 19.47 139.123 18.726C139.123 17.982 138.959 17.422 138.631 17.046C138.303 16.67 137.867 16.482 137.323 16.482C136.779 16.482 136.339 16.67 136.003 17.046C135.675 17.422 135.511 17.982 135.511 18.726C135.511 19.47 135.675 20.034 136.003 20.418C136.331 20.802 136.771 20.994 137.323 20.994ZM142.033 21.75V12.918H143.125V21.75H142.033ZM146.991 21.858C146.503 21.858 146.047 21.794 145.623 21.666C145.207 21.538 144.863 21.354 144.591 21.114L144.939 20.358C145.235 20.582 145.559 20.754 145.911 20.874C146.271 20.986 146.639 21.042 147.015 21.042C147.471 21.042 147.815 20.958 148.047 20.79C148.287 20.622 148.407 20.398 148.407 20.118C148.407 19.894 148.331 19.714 148.179 19.578C148.027 19.442 147.787 19.342 147.459 19.278L146.319 19.05C145.807 18.93 145.419 18.738 145.155 18.474C144.899 18.202 144.771 17.854 144.771 17.43C144.771 17.078 144.867 16.766 145.059 16.494C145.251 16.214 145.523 15.998 145.875 15.846C146.235 15.686 146.655 15.606 147.135 15.606C147.575 15.606 147.983 15.67 148.359 15.798C148.743 15.926 149.059 16.114 149.307 16.362L148.947 17.094C148.699 16.878 148.419 16.714 148.107 16.602C147.803 16.482 147.491 16.422 147.171 16.422C146.707 16.422 146.363 16.514 146.139 16.698C145.915 16.874 145.803 17.106 145.803 17.394C145.803 17.61 145.871 17.79 146.007 17.934C146.143 18.07 146.363 18.174 146.667 18.246L147.807 18.474C148.343 18.586 148.747 18.77 149.019 19.026C149.291 19.282 149.427 19.622 149.427 20.046C149.427 20.422 149.323 20.746 149.115 21.018C148.915 21.29 148.631 21.498 148.263 21.642C147.903 21.786 147.479 21.858 146.991 21.858Z" fill="#FAFAFA"/>
<defs>
<radialGradient id="paint0_radial_6834_97867" cx="0" cy="0" r="1" gradientUnits="userSpaceOnUse" gradientTransform="translate(76.4886 37) rotate(-152.123) scale(76.9917 289.654)">
<stop stop-color="#FFC331" stop-opacity="0.6"/>
<stop offset="1" stop-opacity="0"/>
</radialGradient>
</defs>
</svg>
