<svg width="37" height="36" viewBox="0 0 37 36" fill="none" xmlns="http://www.w3.org/2000/svg">
<path fill-rule="evenodd" clip-rule="evenodd" d="M21.562 14.9482C24.199 14.9482 26.3256 12.769 26.3256 10.0991C26.3256 7.4292 24.1848 5.25 21.562 5.25C18.9392 5.25 16.8125 7.4292 16.8125 10.0991C16.8125 12.769 18.925 14.9482 21.562 14.9482ZM33.5 26.1985C33.5 26.1961 33.5 26.1937 33.5 26.1912V26.2057C33.5 26.2033 33.5 26.2009 33.5 26.1985ZM31.9689 27.7354C32.8171 27.7354 33.4962 27.0609 33.5 26.1985C33.4962 25.3504 32.8171 24.6759 31.9547 24.6759H28.5096V21.4865C28.5096 18.6578 26.3688 16.3488 23.746 16.3488H19.0533C16.3879 16.3488 14.1904 18.6434 14.1904 21.4432V24.6759H6.50623V27.7354H31.9689Z" fill="url(#paint0_linear_1971_74945)"/>
<g filter="url(#filter0_b_1971_74945)">
<path fill-rule="evenodd" clip-rule="evenodd" d="M10.5886 19.6378C13.2115 19.6378 15.3522 17.4731 15.3522 14.8032C15.3522 12.1333 13.2115 9.9541 10.5886 9.9541C7.96581 9.9541 5.82503 12.1333 5.82503 14.8032C5.82503 17.4731 7.96581 19.6378 10.5886 19.6378ZM5.06809 20.6476C4.20206 20.6476 3.5 21.3496 3.5 22.2156V30.1226C3.5 30.469 3.78082 30.7498 4.12724 30.7498H17.0502C17.3966 30.7498 17.6774 30.469 17.6774 30.1226V22.2156C17.6774 21.3496 16.9753 20.6476 16.1093 20.6476H5.06809Z" fill="#60CF88" fill-opacity="0.6"/>
</g>
<g filter="url(#filter1_b_1971_74945)">
<path d="M15.2772 14.8032C15.2772 17.4326 13.1691 19.5628 10.5886 19.5628V19.7128C13.2538 19.7128 15.4272 17.5135 15.4272 14.8032H15.2772ZM10.5886 10.0291C13.1688 10.0291 15.2772 12.1735 15.2772 14.8032H15.4272C15.4272 12.0931 13.2541 9.8791 10.5886 9.8791V10.0291ZM5.90003 14.8032C5.90003 12.1735 8.00849 10.0291 10.5886 10.0291V9.8791C7.92314 9.8791 5.75003 12.0931 5.75003 14.8032H5.90003ZM10.5886 19.5628C8.0082 19.5628 5.90003 17.4326 5.90003 14.8032H5.75003C5.75003 17.5135 7.92343 19.7128 10.5886 19.7128V19.5628ZM3.575 22.2156C3.575 21.391 4.24348 20.7226 5.06809 20.7226V20.5726C4.16064 20.5726 3.425 21.3082 3.425 22.2156H3.575ZM3.575 30.1226V22.2156H3.425V30.1226H3.575ZM4.12724 30.6748C3.82224 30.6748 3.575 30.4275 3.575 30.1226H3.425C3.425 30.5104 3.7394 30.8248 4.12724 30.8248V30.6748ZM17.0502 30.6748H4.12724V30.8248H17.0502V30.6748ZM17.6024 30.1226C17.6024 30.4275 17.3552 30.6748 17.0502 30.6748V30.8248C17.438 30.8248 17.7524 30.5104 17.7524 30.1226H17.6024ZM17.6024 22.2156V30.1226H17.7524V22.2156H17.6024ZM16.1093 20.7226C16.9339 20.7226 17.6024 21.391 17.6024 22.2156H17.7524C17.7524 21.3082 17.0168 20.5726 16.1093 20.5726V20.7226ZM5.06809 20.7226H16.1093V20.5726H5.06809V20.7226Z" fill="url(#paint1_linear_1971_74945)"/>
</g>
<g filter="url(#filter2_b_1971_74945)">
<path d="M12.4775 25.0078C12.8305 25.0078 13.1167 25.2822 13.1167 25.6206C13.1167 25.9591 12.8305 26.2335 12.4775 26.2335L8.09905 26.2335C7.74605 26.2335 7.45989 25.9591 7.45989 25.6206C7.45989 25.2822 7.74605 25.0078 8.09906 25.0078L12.4775 25.0078Z" fill="url(#paint2_linear_1971_74945)" fill-opacity="0.9"/>
</g>
<g filter="url(#filter3_b_1971_74945)">
<path fill-rule="evenodd" clip-rule="evenodd" d="M8.09905 26.1305L12.4775 26.1305C12.7712 26.1305 13.0093 25.9022 13.0093 25.6206C13.0093 25.339 12.7712 25.1108 12.4775 25.1108L8.09906 25.1108C7.80536 25.1108 7.56727 25.339 7.56727 25.6206C7.56727 25.9022 7.80536 26.1305 8.09905 26.1305ZM13.1167 25.6206C13.1167 25.2822 12.8305 25.0078 12.4775 25.0078L8.09906 25.0078C7.74605 25.0078 7.45989 25.2822 7.45989 25.6206C7.45989 25.9591 7.74605 26.2335 8.09905 26.2335L12.4775 26.2335C12.8305 26.2335 13.1167 25.9591 13.1167 25.6206Z" fill="url(#paint3_linear_1971_74945)"/>
</g>
<defs>
<filter id="filter0_b_1971_74945" x="1.81901" y="8.27311" width="17.5394" height="24.1576" filterUnits="userSpaceOnUse" color-interpolation-filters="sRGB">
<feFlood flood-opacity="0" result="BackgroundImageFix"/>
<feGaussianBlur in="BackgroundImageFix" stdDeviation="0.840496"/>
<feComposite in2="SourceAlpha" operator="in" result="effect1_backgroundBlur_1971_74945"/>
<feBlend mode="normal" in="SourceGraphic" in2="effect1_backgroundBlur_1971_74945" result="shape"/>
</filter>
<filter id="filter1_b_1971_74945" x="1.74406" y="8.19816" width="17.6894" height="24.3075" filterUnits="userSpaceOnUse" color-interpolation-filters="sRGB">
<feFlood flood-opacity="0" result="BackgroundImageFix"/>
<feGaussianBlur in="BackgroundImageFix" stdDeviation="0.840496"/>
<feComposite in2="SourceAlpha" operator="in" result="effect1_backgroundBlur_1971_74945"/>
<feBlend mode="normal" in="SourceGraphic" in2="effect1_backgroundBlur_1971_74945" result="shape"/>
</filter>
<filter id="filter2_b_1971_74945" x="5.59425" y="23.1422" width="9.38803" height="4.95675" filterUnits="userSpaceOnUse" color-interpolation-filters="sRGB">
<feFlood flood-opacity="0" result="BackgroundImageFix"/>
<feGaussianBlur in="BackgroundImageFix" stdDeviation="0.932792"/>
<feComposite in2="SourceAlpha" operator="in" result="effect1_backgroundBlur_1971_74945"/>
<feBlend mode="normal" in="SourceGraphic" in2="effect1_backgroundBlur_1971_74945" result="shape"/>
</filter>
<filter id="filter3_b_1971_74945" x="5.59425" y="23.1422" width="9.38803" height="4.95675" filterUnits="userSpaceOnUse" color-interpolation-filters="sRGB">
<feFlood flood-opacity="0" result="BackgroundImageFix"/>
<feGaussianBlur in="BackgroundImageFix" stdDeviation="0.932792"/>
<feComposite in2="SourceAlpha" operator="in" result="effect1_backgroundBlur_1971_74945"/>
<feBlend mode="normal" in="SourceGraphic" in2="effect1_backgroundBlur_1971_74945" result="shape"/>
</filter>
<linearGradient id="paint0_linear_1971_74945" x1="27.5" y1="7.5" x2="14.3533" y2="31.4827" gradientUnits="userSpaceOnUse">
<stop stop-color="#6CDF95"/>
<stop offset="1" stop-color="#2C8C4F"/>
</linearGradient>
<linearGradient id="paint1_linear_1971_74945" x1="4" y1="18" x2="18.4751" y2="30.0299" gradientUnits="userSpaceOnUse">
<stop stop-color="#FEF7F3"/>
<stop offset="1" stop-color="#FEF7F3" stop-opacity="0"/>
</linearGradient>
<linearGradient id="paint2_linear_1971_74945" x1="13.7844" y1="27.1523" x2="8.29927" y2="26.1996" gradientUnits="userSpaceOnUse">
<stop stop-color="white" stop-opacity="0"/>
<stop offset="0.979167" stop-color="white"/>
</linearGradient>
<linearGradient id="paint3_linear_1971_74945" x1="13.1167" y1="25.6206" x2="7.45989" y2="25.6206" gradientUnits="userSpaceOnUse">
<stop stop-color="white" stop-opacity="0"/>
<stop offset="1" stop-color="white"/>
</linearGradient>
</defs>
</svg>
