<svg width="37" height="36" viewBox="0 0 37 36" fill="none" xmlns="http://www.w3.org/2000/svg">
<path d="M12.5878 21.7688C17.791 21.7688 22.0091 17.5672 22.0091 12.3844C22.0091 7.20153 17.791 3 12.5878 3C7.38465 3 3.16663 7.20153 3.16663 12.3844C3.16663 17.5672 7.38465 21.7688 12.5878 21.7688Z" fill="url(#paint0_linear_1971_74970)"/>
<g filter="url(#filter0_b_1971_74970)">
<path d="M20.7497 33.0006C27.6096 33.0006 33.1706 27.4613 33.1706 20.6282C33.1706 13.7952 27.6096 8.25586 20.7497 8.25586C13.8898 8.25586 8.32874 13.7952 8.32874 20.6282C8.32874 27.4613 13.8898 33.0006 20.7497 33.0006Z" fill="#F8B77B" fill-opacity="0.6"/>
</g>
<g filter="url(#filter1_b_1971_74970)">
<path d="M33.0906 20.6282C33.0906 27.4168 27.5657 32.9206 20.7497 32.9206C13.9337 32.9206 8.40874 27.4168 8.40874 20.6282C8.40874 13.8396 13.9337 8.33586 20.7497 8.33586C27.5657 8.33586 33.0906 13.8396 33.0906 20.6282Z" stroke="url(#paint1_linear_1971_74970)" stroke-width="0.16"/>
</g>
<g filter="url(#filter2_b_1971_74970)">
<path d="M27.2958 16.7592C27.2958 15.6702 26.1801 14.8145 24.9566 15.0196V14.9347C24.9566 13.973 24.1717 13.2163 23.1637 13.2163H23.0406C22.9251 13.2163 22.802 13.2234 22.6866 13.2446C22.5173 12.5021 21.8402 12 20.9399 12H20.8168C19.9165 12 19.2393 12.6011 19.1239 13.4568C18.9931 13.4285 18.87 13.4143 18.7392 13.4143H18.616C17.5926 13.4143 16.6923 14.2417 16.6923 15.1822V18.6402C16.6 18.5978 16.5 18.5625 16.3845 18.5342C15.8382 18.3927 15.2611 18.4564 14.7609 18.711C13.7452 19.2343 13.3681 20.4364 13.9222 21.3628C14.0761 21.6528 14.3377 22.2185 14.4146 22.4801C14.7224 23.548 15.1995 24.934 16.146 26.1645C17.4002 27.8051 19.0777 28.6395 21.1476 28.6395H21.2477C23.1329 28.6112 24.5334 28.1516 25.5337 27.2393C26.6879 26.1715 27.3266 24.7713 27.3266 23.2934L27.2958 16.7592ZM21.2323 27.402H21.1476C18.516 27.402 16.7385 25.6907 15.7228 22.1619C15.592 21.7093 15.1226 20.7971 15.1226 20.7971C14.9071 20.4435 15.0456 19.9839 15.4304 19.7859C15.6227 19.6868 15.8382 19.6656 16.046 19.7222C16.2537 19.7717 16.4307 19.899 16.5307 20.0687L18.1851 22.6145C18.339 22.8408 18.6622 22.9186 18.9084 22.7771C19.1624 22.6428 19.2393 22.3458 19.0854 22.1124L18.0774 20.5779V15.1822C18.0774 14.9206 18.3236 14.6872 18.616 14.6872H18.7392C19.0239 14.6872 19.4009 14.9206 19.4009 15.1822V19.6586C19.4009 19.9273 19.5471 20.1465 19.8395 20.1465C20.1319 20.1465 20.2781 19.9273 20.2781 19.6586V13.7043C20.2781 13.4355 20.432 13.0749 20.7244 13.0749H20.9399C21.2323 13.0749 21.3785 13.4355 21.3785 13.7043V19.8919C21.3785 20.1606 21.6324 20.3799 21.9248 20.3799C22.2172 20.3799 22.4712 20.1606 22.4712 19.8919V14.9064C22.4404 14.6024 22.6712 14.2841 22.9482 14.2841H23.0714C23.3638 14.2841 23.5715 14.6731 23.5715 14.9347V20.3657C23.5715 20.6344 23.8331 20.8466 24.1179 20.8466C24.4026 20.8466 24.6719 20.6344 24.6719 20.3657V16.9572C24.6411 16.4551 25.0489 16.2218 25.3721 16.2218C25.6953 16.2218 25.9877 16.4622 25.9877 16.7592V19.3474L26.0031 23.3004C26.0031 24.446 25.4875 25.528 24.5795 26.3625C23.8408 27.0413 22.7405 27.3808 21.2323 27.402Z" fill="url(#paint2_linear_1971_74970)" fill-opacity="0.9"/>
<path d="M27.2558 16.7592L27.2558 16.7594L27.2866 23.2934C27.2866 24.7593 26.6533 26.1491 25.5067 27.2099C24.516 28.1133 23.1264 28.5713 21.2473 28.5995H21.1476C19.0902 28.5995 17.4245 27.7709 16.1778 26.1402L16.1777 26.1401C15.2359 24.9157 14.7605 23.5355 14.4531 22.4691L14.453 22.4689C14.3749 22.2032 14.1116 21.6345 13.9575 21.3441L13.9575 21.3441L13.9565 21.3423C13.4154 20.4376 13.7821 19.2603 14.7792 18.7465C15.2706 18.4964 15.8377 18.4339 16.3745 18.5729L16.375 18.573C16.4881 18.6007 16.5857 18.6353 16.6756 18.6766L16.7323 18.7026V18.6402V15.1822C16.7323 14.2669 17.6115 13.4543 18.616 13.4543H18.7392C18.8669 13.4543 18.9872 13.4681 19.1154 13.4958L19.1577 13.505L19.1635 13.4621C19.2762 12.6265 19.9362 12.04 20.8168 12.04H20.9399C21.825 12.04 22.4832 12.5323 22.6476 13.2535L22.6561 13.2909L22.6938 13.2839C22.8061 13.2633 22.9266 13.2563 23.0406 13.2563H23.1637C24.1512 13.2563 24.9166 13.9966 24.9166 14.9347V15.0196V15.0668L24.9632 15.059C26.1671 14.8572 27.2558 15.6996 27.2558 16.7592ZM21.2323 27.442L21.2328 27.442C22.746 27.4207 23.8577 27.0801 24.6066 26.3919C25.5218 25.5508 26.0431 24.4586 26.0431 23.3004V23.3003L26.0277 19.3474V19.3473V16.7592C26.0277 16.4345 25.7114 16.1818 25.3721 16.1818C25.2018 16.1818 25.0094 16.243 24.8629 16.3711C24.7155 16.5 24.6161 16.6954 24.6319 16.9584V20.3657C24.6319 20.6062 24.3872 20.8066 24.1179 20.8066C23.8492 20.8066 23.6115 20.6068 23.6115 20.3657V14.9347C23.6115 14.7949 23.5566 14.6245 23.4641 14.4888C23.372 14.3536 23.2364 14.2441 23.0714 14.2441H22.9482C22.7938 14.2441 22.6561 14.3326 22.5623 14.4572C22.4688 14.5815 22.4153 14.7461 22.4312 14.9084V19.8919C22.4312 20.1341 22.1999 20.3399 21.9248 20.3399C21.6497 20.3399 21.4185 20.1341 21.4185 19.8919V13.7043C21.4185 13.5637 21.3805 13.3992 21.3033 13.2685C21.2259 13.1375 21.1052 13.0349 20.9399 13.0349H20.7244C20.5593 13.0349 20.4367 13.1373 20.3574 13.2681C20.2782 13.3987 20.2381 13.5633 20.2381 13.7043V19.6586C20.2381 19.7861 20.2034 19.8983 20.1377 19.9778C20.0727 20.0563 19.9747 20.1065 19.8395 20.1065C19.7043 20.1065 19.6063 20.0563 19.5414 19.9778C19.4756 19.8983 19.4409 19.7861 19.4409 19.6586V15.1822C19.4409 15.0322 19.3339 14.8979 19.1998 14.8039C19.0644 14.709 18.8911 14.6472 18.7392 14.6472H18.616C18.3044 14.6472 18.0374 14.8957 18.0374 15.1822V20.5779V20.5898L18.044 20.5998L19.052 22.1344L19.052 22.1344C19.1926 22.3476 19.1233 22.6182 18.8897 22.7418L18.8897 22.7418L18.8885 22.7425C18.6605 22.8734 18.3606 22.8011 18.2184 22.5923C18.2183 22.5922 18.2183 22.5921 18.2182 22.592L16.5647 20.0477C16.4588 19.8684 16.2728 19.7353 16.0559 19.6835C15.8388 19.6245 15.6133 19.6467 15.4121 19.7503C15.0086 19.958 14.8604 20.442 15.0877 20.8166L15.0883 20.818L15.0923 20.8256L15.1073 20.8553C15.1204 20.881 15.1392 20.9183 15.1622 20.9645C15.2081 21.0569 15.2707 21.1848 15.3374 21.3268C15.4712 21.6116 15.6199 21.9502 15.6844 22.173C16.1933 23.9411 16.8943 25.2584 17.8015 26.134C18.7097 27.0106 19.8222 27.442 21.1476 27.442L21.2323 27.442Z" stroke="url(#paint3_linear_1971_74970)" stroke-width="0.0799691"/>
</g>
<defs>
<filter id="filter0_b_1971_74970" x="6.64874" y="6.57586" width="28.2019" height="28.1046" filterUnits="userSpaceOnUse" color-interpolation-filters="sRGB">
<feFlood flood-opacity="0" result="BackgroundImageFix"/>
<feGaussianBlur in="BackgroundImageFix" stdDeviation="0.84"/>
<feComposite in2="SourceAlpha" operator="in" result="effect1_backgroundBlur_1971_74970"/>
<feBlend mode="normal" in="SourceGraphic" in2="effect1_backgroundBlur_1971_74970" result="shape"/>
</filter>
<filter id="filter1_b_1971_74970" x="5.64392" y="5.57104" width="30.2115" height="30.1143" filterUnits="userSpaceOnUse" color-interpolation-filters="sRGB">
<feFlood flood-opacity="0" result="BackgroundImageFix"/>
<feGaussianBlur in="BackgroundImageFix" stdDeviation="1.34241"/>
<feComposite in2="SourceAlpha" operator="in" result="effect1_backgroundBlur_1971_74970"/>
<feBlend mode="normal" in="SourceGraphic" in2="effect1_backgroundBlur_1971_74970" result="shape"/>
</filter>
<filter id="filter2_b_1971_74970" x="11.493" y="9.82641" width="18.0072" height="20.9866" filterUnits="userSpaceOnUse" color-interpolation-filters="sRGB">
<feFlood flood-opacity="0" result="BackgroundImageFix"/>
<feGaussianBlur in="BackgroundImageFix" stdDeviation="1.0868"/>
<feComposite in2="SourceAlpha" operator="in" result="effect1_backgroundBlur_1971_74970"/>
<feBlend mode="normal" in="SourceGraphic" in2="effect1_backgroundBlur_1971_74970" result="shape"/>
</filter>
<linearGradient id="paint0_linear_1971_74970" x1="2.59096" y1="-0.615678" x2="27.2015" y2="9.51061" gradientUnits="userSpaceOnUse">
<stop stop-color="#FFC3A4"/>
<stop offset="1" stop-color="#E6791E"/>
</linearGradient>
<linearGradient id="paint1_linear_1971_74970" x1="10.6666" y1="11.25" x2="27.1666" y2="33.75" gradientUnits="userSpaceOnUse">
<stop stop-color="#D7E8DC"/>
<stop offset="1" stop-color="#E9E9E9" stop-opacity="0.26"/>
</linearGradient>
<linearGradient id="paint2_linear_1971_74970" x1="32.4166" y1="35.25" x2="11.5326" y2="30.1901" gradientUnits="userSpaceOnUse">
<stop stop-color="white" stop-opacity="0.57"/>
<stop offset="0.979167" stop-color="white"/>
</linearGradient>
<linearGradient id="paint3_linear_1971_74970" x1="30.7648" y1="21.2315" x2="11.4166" y2="21.2315" gradientUnits="userSpaceOnUse">
<stop stop-color="white" stop-opacity="0"/>
<stop offset="1" stop-color="white"/>
</linearGradient>
</defs>
</svg>
