<svg width="37" height="36" viewBox="0 0 37 36" fill="none" xmlns="http://www.w3.org/2000/svg">
<g filter="url(#filter0_b_2138_31810)">
<path d="M31.0486 16.155V23.8508C31.0486 24.447 30.5592 24.9347 29.961 24.9347H19.5876C18.9894 24.9347 18.5 24.447 18.5 23.8508C18.5 23.2547 18.9894 22.7669 19.5876 22.7669H28.8733V16.6428L25.5696 13.7026C25.4337 13.7433 25.2705 13.7704 25.121 13.7704C24.0198 13.7704 23.1225 12.8762 23.1225 11.7787C23.1225 10.6812 24.0198 9.80054 25.121 9.80054C26.2222 9.80054 27.1059 10.6812 27.1059 11.7787C27.1059 11.8871 27.1059 12.009 27.0787 12.1174V12.1445L30.6815 15.3556C30.9262 15.5588 31.0486 15.8569 31.0486 16.155Z" fill="url(#paint0_linear_2138_31810)"/>
</g>
<path fill-rule="evenodd" clip-rule="evenodd" d="M20.1219 13.397C21.196 12.3225 21.7619 10.9327 21.7619 9.40274C21.7619 7.86108 21.2076 6.49461 20.1335 5.40845C19.0594 4.32228 17.685 3.75 16.172 3.75C14.659 3.75 13.2846 4.32228 12.2336 5.39677C11.1595 6.48293 10.5821 7.87276 10.5821 9.40274C10.5821 10.9327 11.1595 12.3225 12.2221 13.3853C13.2846 14.4715 14.6475 15.0555 16.172 15.0555C17.6965 15.0555 19.0594 14.4715 20.1219 13.397ZM24.9093 24.7416C25.4079 24.7416 25.844 24.3757 25.844 23.877V23.8635C25.844 23.4312 25.8306 23.0259 25.8039 22.6206C25.7772 22.2019 25.7238 21.756 25.6436 21.2292C25.5501 20.7293 25.4299 20.243 25.2963 19.8107C25.136 19.3244 24.9222 18.8245 24.6283 18.2977C24.3077 17.7438 23.947 17.271 23.5329 16.8657C23.0119 16.3794 22.4508 16.0281 21.863 15.7985C21.2217 15.5418 20.5271 15.4067 19.7656 15.4067C19.0041 15.4067 18.4297 15.7174 17.9488 16.0417L17.205 16.5215C17.1847 16.5345 17.1619 16.5459 17.1404 16.5569C17.0848 16.5853 16.9573 16.6505 16.7197 16.7306C16.359 16.8522 15.9983 16.8522 15.6243 16.7306C15.3919 16.6591 15.236 16.5799 15.1737 16.5455C15.1321 16.5225 15.2362 16.58 15.1541 16.5315C15.0719 16.483 15.1413 16.5267 15.1136 16.5092L14.4353 16.0822C13.9277 15.7309 13.3399 15.4202 12.5784 15.4202C11.8169 15.4202 11.1089 15.5553 10.5211 15.7985C9.87985 16.0552 9.29205 16.4199 8.79777 16.9062C8.39699 17.2845 8.0363 17.7573 7.71568 18.3247C7.42178 18.8381 7.20803 19.3379 7.06108 19.8107C6.92749 20.2565 6.80726 20.7429 6.70039 21.2832C6.63359 21.7696 6.58015 22.2154 6.55344 22.6341C6.5 23.0394 6.5 23.4447 6.5 23.877C6.5 24.3757 6.93606 24.7416 7.43473 24.7416H24.9093Z" fill="url(#paint1_linear_2138_31810)"/>
<g filter="url(#filter1_b_2138_31810)">
<path d="M28.8694 30.1107C28.5607 31.1412 28.4064 31.6565 28.0078 31.9533C27.6091 32.25 27.0712 32.25 25.9955 32.25H10.7819C9.66526 32.25 9.10695 32.25 8.70139 31.9359C8.29582 31.6217 8.15626 31.0811 7.87713 30L6.5 24.6658H30.5L28.8694 30.1107Z" fill="#BFB5FF" fill-opacity="0.6"/>
</g>
<g filter="url(#filter2_b_2138_31810)">
<path fill-rule="evenodd" clip-rule="evenodd" d="M10.7819 31.95H25.9955C26.5404 31.95 26.9234 31.9496 27.2208 31.915C27.5105 31.8813 27.687 31.818 27.8286 31.7126C27.9702 31.6072 28.0814 31.4562 28.1968 31.1884C28.3153 30.9134 28.4256 30.5467 28.582 30.0246L30.097 24.9658H6.88729L8.16761 29.925C8.30898 30.4726 8.40891 30.8577 8.52142 31.1467C8.63101 31.4283 8.74119 31.5872 8.8851 31.6987C9.02901 31.8102 9.2104 31.8772 9.51045 31.9129C9.81849 31.9495 10.2163 31.95 10.7819 31.95ZM6.5 24.6658H30.5L28.8694 30.1107C28.5607 31.1412 28.4064 31.6565 28.0078 31.9533C27.6091 32.25 27.0712 32.25 25.9955 32.25H10.7819C9.66526 32.25 9.10695 32.25 8.70139 31.9359C8.29582 31.6217 8.15626 31.0811 7.87713 30L6.5 24.6658Z" fill="url(#paint2_linear_2138_31810)"/>
</g>
<g filter="url(#filter3_b_2138_31810)">
<path d="M32.1309 20.4185H4.86911C4.11297 20.4185 3.5 20.9763 3.5 21.6645V23.723C3.5 24.4112 4.11297 24.969 4.86911 24.969H32.1309C32.887 24.969 33.5 24.4112 33.5 23.723V21.6645C33.5 20.9763 32.887 20.4185 32.1309 20.4185Z" fill="#BFB5FF" fill-opacity="0.6"/>
</g>
<g filter="url(#filter4_b_2138_31810)">
<path fill-rule="evenodd" clip-rule="evenodd" d="M32.1309 20.7185H4.86911C4.25143 20.7185 3.8 21.168 3.8 21.6645V23.723C3.8 24.2195 4.25143 24.669 4.86911 24.669H32.1309C32.7486 24.669 33.2 24.2195 33.2 23.723V21.6645C33.2 21.168 32.7486 20.7185 32.1309 20.7185ZM4.86911 20.4185H32.1309C32.887 20.4185 33.5 20.9763 33.5 21.6645V23.723C33.5 24.4112 32.887 24.969 32.1309 24.969H4.86911C4.11297 24.969 3.5 24.4112 3.5 23.723V21.6645C3.5 20.9763 4.11297 20.4185 4.86911 20.4185Z" fill="url(#paint3_linear_2138_31810)"/>
</g>
<defs>
<filter id="filter0_b_2138_31810" x="17.7878" y="9.0883" width="13.9731" height="16.5587" filterUnits="userSpaceOnUse" color-interpolation-filters="sRGB">
<feFlood flood-opacity="0" result="BackgroundImageFix"/>
<feGaussianBlur in="BackgroundImageFix" stdDeviation="0.356117"/>
<feComposite in2="SourceAlpha" operator="in" result="effect1_backgroundBlur_2138_31810"/>
<feBlend mode="normal" in="SourceGraphic" in2="effect1_backgroundBlur_2138_31810" result="shape"/>
</filter>
<filter id="filter1_b_2138_31810" x="5.72179" y="23.8876" width="25.5564" height="9.14064" filterUnits="userSpaceOnUse" color-interpolation-filters="sRGB">
<feFlood flood-opacity="0" result="BackgroundImageFix"/>
<feGaussianBlur in="BackgroundImageFix" stdDeviation="0.389104"/>
<feComposite in2="SourceAlpha" operator="in" result="effect1_backgroundBlur_2138_31810"/>
<feBlend mode="normal" in="SourceGraphic" in2="effect1_backgroundBlur_2138_31810" result="shape"/>
</filter>
<filter id="filter2_b_2138_31810" x="5.72179" y="23.8876" width="25.5564" height="9.14064" filterUnits="userSpaceOnUse" color-interpolation-filters="sRGB">
<feFlood flood-opacity="0" result="BackgroundImageFix"/>
<feGaussianBlur in="BackgroundImageFix" stdDeviation="0.389104"/>
<feComposite in2="SourceAlpha" operator="in" result="effect1_backgroundBlur_2138_31810"/>
<feBlend mode="normal" in="SourceGraphic" in2="effect1_backgroundBlur_2138_31810" result="shape"/>
</filter>
<filter id="filter3_b_2138_31810" x="2.72179" y="19.6402" width="31.5564" height="6.10695" filterUnits="userSpaceOnUse" color-interpolation-filters="sRGB">
<feFlood flood-opacity="0" result="BackgroundImageFix"/>
<feGaussianBlur in="BackgroundImageFix" stdDeviation="0.389104"/>
<feComposite in2="SourceAlpha" operator="in" result="effect1_backgroundBlur_2138_31810"/>
<feBlend mode="normal" in="SourceGraphic" in2="effect1_backgroundBlur_2138_31810" result="shape"/>
</filter>
<filter id="filter4_b_2138_31810" x="2.72179" y="19.6402" width="31.5564" height="6.10695" filterUnits="userSpaceOnUse" color-interpolation-filters="sRGB">
<feFlood flood-opacity="0" result="BackgroundImageFix"/>
<feGaussianBlur in="BackgroundImageFix" stdDeviation="0.389104"/>
<feComposite in2="SourceAlpha" operator="in" result="effect1_backgroundBlur_2138_31810"/>
<feBlend mode="normal" in="SourceGraphic" in2="effect1_backgroundBlur_2138_31810" result="shape"/>
</filter>
<linearGradient id="paint0_linear_2138_31810" x1="18.1166" y1="6.88504" x2="35.2973" y2="12.7236" gradientUnits="userSpaceOnUse">
<stop stop-color="#917FFB"/>
<stop offset="1" stop-color="#3F2DAF"/>
</linearGradient>
<linearGradient id="paint1_linear_2138_31810" x1="5.90901" y1="-0.293888" x2="31.764" y2="9.47113" gradientUnits="userSpaceOnUse">
<stop stop-color="#917FFB"/>
<stop offset="1" stop-color="#3F2DAF"/>
</linearGradient>
<linearGradient id="paint2_linear_2138_31810" x1="4.78571" y1="25.3553" x2="16.4914" y2="44.4811" gradientUnits="userSpaceOnUse">
<stop stop-color="white"/>
<stop offset="1" stop-color="white" stop-opacity="0"/>
</linearGradient>
<linearGradient id="paint3_linear_2138_31810" x1="1.35714" y1="20.8321" x2="5.62305" y2="35.353" gradientUnits="userSpaceOnUse">
<stop stop-color="white"/>
<stop offset="1" stop-color="white" stop-opacity="0"/>
</linearGradient>
</defs>
</svg>
