<svg width="37" height="36" viewBox="0 0 37 36" fill="none" xmlns="http://www.w3.org/2000/svg">
<path d="M14.4036 29.806C14.4073 29.806 14.4103 29.809 14.4103 29.8127C14.4138 30.7468 15.1453 31.5012 16.0491 31.5012H21.1122C22.0182 31.5012 22.751 30.7431 22.751 29.806V29.1031C22.751 28.9928 22.6711 28.9102 22.5645 28.9102H14.5835C14.4769 28.9102 14.397 28.9928 14.397 29.1031V29.7993C14.397 29.803 14.4 29.806 14.4036 29.806Z" fill="url(#paint0_linear_1971_74966)"/>
<path d="M23.8336 9.94673C23.8356 9.94673 23.8366 9.94436 23.8352 9.94289C20.9452 6.73739 16.2239 6.65991 13.2534 9.86791C11.2347 12.0412 10.4764 15.228 11.3679 18.3809C11.6753 19.462 12.2389 20.4191 12.9152 21.2637C13.4173 21.883 13.776 22.6149 13.9604 23.3919C14.0527 23.7635 14.3703 24 14.7085 24H22.2709C22.609 24 22.937 23.7635 23.0189 23.4032C23.2034 22.6149 23.5723 21.883 24.0846 21.2524C26.6966 18.0444 26.6567 13.1037 23.8319 9.95056C23.8306 9.94909 23.8316 9.94673 23.8336 9.94673Z" fill="url(#paint1_linear_1971_74966)"/>
<path d="M12.7271 26.6233C12.7271 27.4915 13.4066 28.2082 14.2593 28.2082H22.8931C23.7325 28.2082 24.4253 27.5053 24.4253 26.6233V25.9066C24.4253 25.7412 24.2921 25.6172 24.1455 25.6172H13.0735C12.8869 25.6172 12.7271 25.7826 12.7271 25.9755V26.6233Z" fill="url(#paint2_linear_1971_74966)"/>
<g filter="url(#filter0_b_1971_74966)">
<path d="M25.5192 7.49456C25.5218 7.49456 25.523 7.49152 25.5213 7.48971C21.7635 3.56664 15.6247 3.47187 11.7624 7.39808C9.13764 10.058 8.15168 13.9583 9.31085 17.8172C9.71057 19.1402 10.4434 20.3117 11.3227 21.3454C11.9756 22.1034 12.4419 22.9992 12.6818 23.9501C12.8017 24.4049 13.2147 24.6943 13.6544 24.6943H23.4874C23.9271 24.6943 24.3534 24.4049 24.46 23.9639C24.6998 22.9992 25.1795 22.1034 25.8457 21.3316C29.2418 17.4054 29.19 11.3585 25.5172 7.4994C25.5155 7.49759 25.5167 7.49456 25.5192 7.49456Z" fill="#FB9EA6" fill-opacity="0.6"/>
<path d="M11.8083 7.44338L11.8084 7.44331C15.6377 3.55061 21.7189 3.63693 25.4536 7.51231C25.4561 7.52359 25.4616 7.53448 25.4705 7.54384L25.4705 7.54386C29.12 11.3786 29.1717 17.3879 25.7969 21.2894L25.7969 21.2894C25.1246 22.0683 24.6399 22.9731 24.3974 23.9484L24.3973 23.9488C24.2987 24.357 23.9014 24.6299 23.4874 24.6299H13.6544C13.2424 24.6299 12.8563 24.3587 12.7442 23.934C12.5019 22.9734 12.0309 22.0687 11.3716 21.3033C10.4963 20.2744 9.76904 19.1107 9.37261 17.7986C8.22 13.9615 9.20065 10.0859 11.8083 7.44338Z" stroke="url(#paint3_linear_1971_74966)" stroke-width="0.128976"/>
</g>
<g filter="url(#filter1_b_1971_74966)">
<path d="M18.1319 20.8669C18.0747 20.9568 17.957 20.9861 17.8643 20.9334L16.39 20.0951C16.2906 20.0386 16.2587 19.9103 16.3202 19.8138L18.2308 16.816C18.3157 16.6829 18.22 16.5085 18.0622 16.5085H14.5508C14.3929 16.5085 14.2973 16.3341 14.3822 16.201L18.2351 10.1611C18.292 10.0717 18.4088 10.0424 18.5013 10.0941L19.9743 10.9179C20.0746 10.974 20.1071 11.1029 20.0453 11.1999L18.1355 14.1964C18.0507 14.3295 18.1463 14.5039 18.3042 14.5039H21.816C21.9738 14.5039 22.0695 14.6781 21.9848 14.8113L18.1319 20.8669Z" fill="url(#paint4_linear_1971_74966)" fill-opacity="0.9"/>
<path d="M18.0884 20.8392C18.046 20.9059 17.9586 20.9276 17.8898 20.8885L16.4155 20.0503C16.3417 20.0083 16.3181 19.9131 16.3637 19.8415L18.2743 16.8438C18.3811 16.6763 18.2608 16.4569 18.0622 16.4569H14.5508C14.4337 16.4569 14.3627 16.3275 14.4257 16.2287L18.2786 10.1888C18.3208 10.1225 18.4075 10.1007 18.4761 10.1391L19.9491 10.9629C20.0236 11.0045 20.0477 11.1002 20.0018 11.1722L18.092 14.1687C17.9853 14.3362 18.1056 14.5555 18.3042 14.5555H21.816C21.9331 14.5555 22.0041 14.6848 21.9412 14.7836L18.0884 20.8392Z" stroke="url(#paint5_linear_1971_74966)" stroke-width="0.103181"/>
</g>
<g filter="url(#filter2_b_1971_74966)">
<path d="M32.6095 15.6654H30.179C29.6875 15.6654 29.2915 15.2594 29.2915 14.7555C29.2915 14.2516 29.6875 13.8457 30.179 13.8457H32.6095C33.1011 13.8457 33.497 14.2516 33.497 14.7555C33.497 15.2594 33.1011 15.6654 32.6095 15.6654Z" fill="#FB9EA6" fill-opacity="0.6"/>
<path d="M32.6095 15.6009H30.179C29.7246 15.6009 29.356 15.2253 29.356 14.7555C29.356 14.2857 29.7246 13.9102 30.179 13.9102H32.6095C33.0639 13.9102 33.4325 14.2857 33.4325 14.7555C33.4325 15.2253 33.0639 15.6009 32.6095 15.6009Z" stroke="url(#paint6_linear_1971_74966)" stroke-width="0.128976"/>
</g>
<g filter="url(#filter3_b_1971_74966)">
<path d="M31.1921 22.2426C31.0283 22.2426 30.8508 22.1866 30.7006 22.0886L28.6797 20.7029C28.2701 20.4229 28.1609 19.863 28.434 19.4431C28.707 19.0232 29.2532 18.9112 29.6628 19.1911L31.6837 20.5769C32.0933 20.8568 32.2025 21.4167 31.9294 21.8367C31.7519 22.1026 31.4789 22.2426 31.1921 22.2426Z" fill="#FB9EA6" fill-opacity="0.6"/>
<path d="M28.7162 20.6497L28.7161 20.6496C28.3359 20.3898 28.2337 19.8693 28.488 19.4783C28.7417 19.0882 29.2472 18.9852 29.6265 19.2444L31.6472 20.6301L31.6473 20.6301C32.0274 20.8899 32.1296 21.4102 31.8756 21.8012C31.7098 22.0493 31.4568 22.1781 31.1921 22.1781C31.0423 22.1781 30.8772 22.1266 30.7364 22.035L28.7162 20.6497Z" stroke="url(#paint7_linear_1971_74966)" stroke-width="0.128976"/>
</g>
<g filter="url(#filter4_b_1971_74966)">
<path d="M29.1713 10.4652C28.8845 10.4652 28.6115 10.3253 28.434 10.0593C28.1609 9.63939 28.2701 9.07949 28.6797 8.79954L30.7006 7.4138C31.1102 7.13385 31.6564 7.24583 31.9294 7.66575C32.2025 8.08568 32.0933 8.64557 31.6837 8.92552L29.6628 10.3113C29.5126 10.4092 29.3351 10.4652 29.1713 10.4652Z" fill="#FB9EA6" fill-opacity="0.6"/>
<path d="M28.7161 8.85279L28.7162 8.85273L30.737 7.46704C30.737 7.46703 30.737 7.46702 30.737 7.467C31.1163 7.20787 31.6217 7.31085 31.8754 7.70091C32.1297 8.09193 32.0275 8.61242 31.6473 8.87228L31.6472 8.87234L29.627 10.2577C29.4862 10.3493 29.3211 10.4007 29.1713 10.4007C28.9066 10.4007 28.6536 10.272 28.4878 10.0238C28.2338 9.63285 28.336 9.11258 28.7161 8.85279Z" stroke="url(#paint8_linear_1971_74966)" stroke-width="0.128976"/>
</g>
<g filter="url(#filter5_b_1971_74966)">
<path d="M4.38758 15.6654H6.81804C7.30959 15.6654 7.70557 15.2594 7.70557 14.7555C7.70557 14.2516 7.30959 13.8457 6.81804 13.8457H4.38758C3.89602 13.8457 3.50005 14.2516 3.50005 14.7555C3.50005 15.2594 3.89602 15.6654 4.38758 15.6654Z" fill="#FB9EA6" fill-opacity="0.6"/>
<path d="M4.38758 15.6009H6.81804C7.27248 15.6009 7.64108 15.2253 7.64108 14.7555C7.64108 14.2857 7.27248 13.9102 6.81804 13.9102H4.38758C3.93314 13.9102 3.56454 14.2857 3.56454 14.7555C3.56454 15.2253 3.93314 15.6009 4.38758 15.6009Z" stroke="url(#paint9_linear_1971_74966)" stroke-width="0.128976"/>
</g>
<g filter="url(#filter6_b_1971_74966)">
<path d="M5.80496 22.2426C5.96881 22.2426 6.14631 22.1866 6.29651 22.0886L8.31734 20.7029C8.72697 20.4229 8.8362 19.863 8.56312 19.4431C8.29003 19.0232 7.74386 18.9112 7.33423 19.1911L5.3134 20.5769C4.90377 20.8568 4.79454 21.4167 5.06762 21.8367C5.24513 22.1026 5.51822 22.2426 5.80496 22.2426Z" fill="#FB9EA6" fill-opacity="0.6"/>
<path d="M8.28087 20.6497L8.28096 20.6496C8.66119 20.3898 8.76335 19.8693 8.50906 19.4783C8.25538 19.0882 7.74987 18.9852 7.37062 19.2444L5.34987 20.6301L5.34979 20.6301C4.96965 20.8899 4.86745 21.4102 5.12148 21.8012C5.28725 22.0493 5.54029 22.1781 5.80496 22.1781C5.95476 22.1781 6.11992 22.1266 6.26066 22.035L8.28087 20.6497Z" stroke="url(#paint10_linear_1971_74966)" stroke-width="0.128976"/>
</g>
<g filter="url(#filter7_b_1971_74966)">
<path d="M7.82579 10.4652C8.11253 10.4652 8.38561 10.3253 8.56312 10.0593C8.8362 9.63939 8.72697 9.07949 8.31734 8.79954L6.29651 7.4138C5.88688 7.13385 5.34071 7.24583 5.06762 7.66575C4.79454 8.08568 4.90377 8.64557 5.3134 8.92552L7.33423 10.3113C7.48443 10.4092 7.66194 10.4652 7.82579 10.4652Z" fill="#FB9EA6" fill-opacity="0.6"/>
<path d="M8.28096 8.85279L8.28087 8.85273L6.26012 7.46704C6.2601 7.46703 6.26008 7.46701 6.26006 7.467C5.88081 7.20787 5.37535 7.31085 5.12168 7.70091C4.8674 8.09193 4.96955 8.61242 5.34979 8.87228L5.34987 8.87234L7.37007 10.2576C7.51082 10.3493 7.67598 10.4007 7.82579 10.4007C8.09045 10.4007 8.34349 10.272 8.50927 10.0238C8.76329 9.63285 8.66109 9.11258 8.28096 8.85279Z" stroke="url(#paint11_linear_1971_74966)" stroke-width="0.128976"/>
</g>
<defs>
<filter id="filter0_b_1971_74966" x="5.95057" y="1.62" width="25.2637" height="25.9543" filterUnits="userSpaceOnUse" color-interpolation-filters="sRGB">
<feFlood flood-opacity="0" result="BackgroundImageFix"/>
<feGaussianBlur in="BackgroundImageFix" stdDeviation="1.44"/>
<feComposite in2="SourceAlpha" operator="in" result="effect1_backgroundBlur_1971_74966"/>
<feBlend mode="normal" in="SourceGraphic" in2="effect1_backgroundBlur_1971_74966" result="shape"/>
</filter>
<filter id="filter1_b_1971_74966" x="11.546" y="7.26411" width="13.2749" height="16.4999" filterUnits="userSpaceOnUse" color-interpolation-filters="sRGB">
<feFlood flood-opacity="0" result="BackgroundImageFix"/>
<feGaussianBlur in="BackgroundImageFix" stdDeviation="1.40225"/>
<feComposite in2="SourceAlpha" operator="in" result="effect1_backgroundBlur_1971_74966"/>
<feBlend mode="normal" in="SourceGraphic" in2="effect1_backgroundBlur_1971_74966" result="shape"/>
</filter>
<filter id="filter2_b_1971_74966" x="26.4115" y="10.9657" width="9.96557" height="7.57958" filterUnits="userSpaceOnUse" color-interpolation-filters="sRGB">
<feFlood flood-opacity="0" result="BackgroundImageFix"/>
<feGaussianBlur in="BackgroundImageFix" stdDeviation="1.44"/>
<feComposite in2="SourceAlpha" operator="in" result="effect1_backgroundBlur_1971_74966"/>
<feBlend mode="normal" in="SourceGraphic" in2="effect1_backgroundBlur_1971_74966" result="shape"/>
</filter>
<filter id="filter3_b_1971_74966" x="25.4037" y="16.1571" width="9.55602" height="8.96557" filterUnits="userSpaceOnUse" color-interpolation-filters="sRGB">
<feFlood flood-opacity="0" result="BackgroundImageFix"/>
<feGaussianBlur in="BackgroundImageFix" stdDeviation="1.44"/>
<feComposite in2="SourceAlpha" operator="in" result="effect1_backgroundBlur_1971_74966"/>
<feBlend mode="normal" in="SourceGraphic" in2="effect1_backgroundBlur_1971_74966" result="shape"/>
</filter>
<filter id="filter4_b_1971_74966" x="25.4037" y="4.37977" width="9.55602" height="8.96557" filterUnits="userSpaceOnUse" color-interpolation-filters="sRGB">
<feFlood flood-opacity="0" result="BackgroundImageFix"/>
<feGaussianBlur in="BackgroundImageFix" stdDeviation="1.44"/>
<feComposite in2="SourceAlpha" operator="in" result="effect1_backgroundBlur_1971_74966"/>
<feBlend mode="normal" in="SourceGraphic" in2="effect1_backgroundBlur_1971_74966" result="shape"/>
</filter>
<filter id="filter5_b_1971_74966" x="0.62" y="10.9657" width="9.96557" height="7.57958" filterUnits="userSpaceOnUse" color-interpolation-filters="sRGB">
<feFlood flood-opacity="0" result="BackgroundImageFix"/>
<feGaussianBlur in="BackgroundImageFix" stdDeviation="1.44"/>
<feComposite in2="SourceAlpha" operator="in" result="effect1_backgroundBlur_1971_74966"/>
<feBlend mode="normal" in="SourceGraphic" in2="effect1_backgroundBlur_1971_74966" result="shape"/>
</filter>
<filter id="filter6_b_1971_74966" x="2.03736" y="16.1571" width="9.55602" height="8.96557" filterUnits="userSpaceOnUse" color-interpolation-filters="sRGB">
<feFlood flood-opacity="0" result="BackgroundImageFix"/>
<feGaussianBlur in="BackgroundImageFix" stdDeviation="1.44"/>
<feComposite in2="SourceAlpha" operator="in" result="effect1_backgroundBlur_1971_74966"/>
<feBlend mode="normal" in="SourceGraphic" in2="effect1_backgroundBlur_1971_74966" result="shape"/>
</filter>
<filter id="filter7_b_1971_74966" x="2.03736" y="4.37977" width="9.55602" height="8.96557" filterUnits="userSpaceOnUse" color-interpolation-filters="sRGB">
<feFlood flood-opacity="0" result="BackgroundImageFix"/>
<feGaussianBlur in="BackgroundImageFix" stdDeviation="1.44"/>
<feComposite in2="SourceAlpha" operator="in" result="effect1_backgroundBlur_1971_74966"/>
<feBlend mode="normal" in="SourceGraphic" in2="effect1_backgroundBlur_1971_74966" result="shape"/>
</filter>
<linearGradient id="paint0_linear_1971_74966" x1="14.1417" y1="28.411" x2="18.7875" y2="34.5503" gradientUnits="userSpaceOnUse">
<stop stop-color="#FDCAC9"/>
<stop offset="1" stop-color="#F21B3A"/>
</linearGradient>
<linearGradient id="paint1_linear_1971_74966" x1="10.5403" y1="4.32139" x2="30.6564" y2="11.8165" gradientUnits="userSpaceOnUse">
<stop stop-color="#FDCAC9"/>
<stop offset="1" stop-color="#F21B3A"/>
</linearGradient>
<linearGradient id="paint2_linear_1971_74966" x1="12.3696" y1="25.1181" x2="16.4079" y2="32.5907" gradientUnits="userSpaceOnUse">
<stop stop-color="#FDCAC9"/>
<stop offset="1" stop-color="#F21B3A"/>
</linearGradient>
<linearGradient id="paint3_linear_1971_74966" x1="7.43745" y1="6.33585" x2="35.3933" y2="20.2765" gradientUnits="userSpaceOnUse">
<stop stop-color="white"/>
<stop offset="1" stop-color="white" stop-opacity="0"/>
</linearGradient>
<linearGradient id="paint4_linear_1971_74966" x1="28.1734" y1="8.70061" x2="27.6033" y2="19.6844" gradientUnits="userSpaceOnUse">
<stop stop-color="white" stop-opacity="0"/>
<stop offset="0.979167" stop-color="white"/>
</linearGradient>
<linearGradient id="paint5_linear_1971_74966" x1="24.1925" y1="16.1188" x2="10.5967" y2="16.1188" gradientUnits="userSpaceOnUse">
<stop stop-color="white" stop-opacity="0"/>
<stop offset="1" stop-color="white"/>
</linearGradient>
<linearGradient id="paint6_linear_1971_74966" x1="28.9911" y1="14.0111" x2="32.0963" y2="17.7166" gradientUnits="userSpaceOnUse">
<stop stop-color="white"/>
<stop offset="1" stop-color="white" stop-opacity="0"/>
</linearGradient>
<linearGradient id="paint7_linear_1971_74966" x1="28.0125" y1="19.3285" x2="32.9578" y2="22.3523" gradientUnits="userSpaceOnUse">
<stop stop-color="white"/>
<stop offset="1" stop-color="white" stop-opacity="0"/>
</linearGradient>
<linearGradient id="paint8_linear_1971_74966" x1="28.0125" y1="7.55117" x2="32.9578" y2="10.5749" gradientUnits="userSpaceOnUse">
<stop stop-color="white"/>
<stop offset="1" stop-color="white" stop-opacity="0"/>
</linearGradient>
<linearGradient id="paint9_linear_1971_74966" x1="8.00596" y1="14.0111" x2="4.90074" y2="17.7166" gradientUnits="userSpaceOnUse">
<stop stop-color="white"/>
<stop offset="1" stop-color="white" stop-opacity="0"/>
</linearGradient>
<linearGradient id="paint10_linear_1971_74966" x1="8.98452" y1="19.3285" x2="4.0393" y2="22.3523" gradientUnits="userSpaceOnUse">
<stop stop-color="white"/>
<stop offset="1" stop-color="white" stop-opacity="0"/>
</linearGradient>
<linearGradient id="paint11_linear_1971_74966" x1="8.98452" y1="7.55117" x2="4.0393" y2="10.5749" gradientUnits="userSpaceOnUse">
<stop stop-color="white"/>
<stop offset="1" stop-color="white" stop-opacity="0"/>
</linearGradient>
</defs>
</svg>
