<svg width="37" height="36" viewBox="0 0 37 36" fill="none" xmlns="http://www.w3.org/2000/svg">
<rect x="3.8335" y="10.8948" width="28.534" height="16.6448" rx="3" transform="rotate(-16.0621 3.8335 10.8948)" fill="url(#paint0_linear_1971_74979)"/>
<g filter="url(#filter0_b_1971_74979)">
<rect x="2.3335" y="10.5" width="33" height="19.5" rx="3" fill="#F07744" fill-opacity="0.6"/>
<rect x="2.39798" y="10.5645" width="32.871" height="19.371" rx="2.93551" stroke="url(#paint1_linear_1971_74979)" stroke-width="0.128976"/>
</g>
<g filter="url(#filter1_b_1971_74979)">
<path d="M12.7971 15.1985L12.7972 15.1984C13.1048 14.9607 13.5378 15.0165 13.7755 15.3242C14.0132 15.6318 13.9574 16.0646 13.6497 16.3024C12.1983 17.4212 11.2824 19.1155 11.2824 21C11.2824 22.8845 12.1983 24.5789 13.6498 25.6976L13.6499 25.6977C13.9501 25.9281 14.013 26.3685 13.7755 26.6758L13.7754 26.6759C13.545 26.9762 13.1046 27.0391 12.7972 26.8016L12.7971 26.8015C11.0312 25.4455 9.88462 23.3527 9.88462 21C9.88462 18.6473 11.0312 16.5545 12.7971 15.1985Z" fill="url(#paint2_linear_1971_74979)" fill-opacity="0.9" stroke="url(#paint3_linear_1971_74979)" stroke-width="0.102245"/>
<path d="M23.3698 15.1981L23.3699 15.1982C25.1359 16.5542 26.2824 18.647 26.2824 20.9997C26.2824 23.3524 25.1359 25.4452 23.3699 26.8012L23.3698 26.8013C23.0622 27.039 22.6293 26.9832 22.3915 26.6755C22.1538 26.3679 22.2096 25.9351 22.5173 25.6973C23.9687 24.5786 24.8847 22.8917 24.8847 20.9997C24.8847 19.1076 23.9687 17.4208 22.5173 16.302L22.5172 16.302C22.2169 16.0715 22.154 15.6312 22.3915 15.3239L22.3916 15.3237C22.6221 15.0235 23.0624 14.9606 23.3698 15.1981Z" fill="url(#paint4_linear_1971_74979)" fill-opacity="0.9" stroke="url(#paint5_linear_1971_74979)" stroke-width="0.102245"/>
<path d="M15.5857 18.2228C15.5953 18.2304 15.6064 18.2342 15.6174 18.2347C15.8936 18.4828 15.9264 18.9057 15.6888 19.1976C15.2692 19.7088 15.0323 20.335 15.0323 21.0073C15.0323 21.68 15.277 22.3061 15.6886 22.8168L15.6888 22.817C15.9337 23.1179 15.8914 23.5581 15.5911 23.8025C15.2902 24.0474 14.85 24.0051 14.6056 23.7049L14.6055 23.7047C13.9974 22.9632 13.6271 22.0295 13.6271 21.0148C13.6271 20.0001 13.9974 19.0665 14.6055 18.325L14.6056 18.3248C14.8485 18.0264 15.2849 17.9828 15.5857 18.2228Z" fill="url(#paint6_linear_1971_74979)" fill-opacity="0.9" stroke="url(#paint7_linear_1971_74979)" stroke-width="0.102245"/>
<path d="M21.6288 18.3102L21.6289 18.3103C22.237 19.0518 22.6073 19.9855 22.6073 21.0002C22.6073 22.0149 22.237 22.9485 21.6289 23.6901L21.6288 23.6902C21.3844 23.9905 20.9441 24.0328 20.6432 23.7878C20.343 23.5435 20.3006 23.1033 20.5455 22.8024C20.9651 22.2913 21.2021 21.665 21.2021 20.9927C21.2021 20.32 20.9573 19.6939 20.5457 19.1832L20.5456 19.183C20.308 18.8911 20.3407 18.4682 20.6169 18.22C20.628 18.2196 20.6391 18.2158 20.6487 18.2081C20.9495 17.9681 21.3859 18.0117 21.6288 18.3102Z" fill="url(#paint8_linear_1971_74979)" fill-opacity="0.9" stroke="url(#paint9_linear_1971_74979)" stroke-width="0.102245"/>
<path d="M19.1574 21.0004C19.1574 21.5946 18.6778 22.0742 18.0835 22.0742C17.4892 22.0742 17.0096 21.5946 17.0096 21.0004C17.0096 20.4062 17.4892 19.9266 18.0835 19.9266C18.6778 19.9266 19.1574 20.4062 19.1574 21.0004Z" fill="url(#paint10_linear_1971_74979)" fill-opacity="0.9" stroke="url(#paint11_linear_1971_74979)" stroke-width="0.102245"/>
</g>
<defs>
<filter id="filter0_b_1971_74979" x="-0.346504" y="7.82" width="38.36" height="24.86" filterUnits="userSpaceOnUse" color-interpolation-filters="sRGB">
<feFlood flood-opacity="0" result="BackgroundImageFix"/>
<feGaussianBlur in="BackgroundImageFix" stdDeviation="1.34"/>
<feComposite in2="SourceAlpha" operator="in" result="effect1_backgroundBlur_1971_74979"/>
<feBlend mode="normal" in="SourceGraphic" in2="effect1_backgroundBlur_1971_74979" result="shape"/>
</filter>
<filter id="filter1_b_1971_74979" x="7.05444" y="12.2209" width="22.0581" height="17.5579" filterUnits="userSpaceOnUse" color-interpolation-filters="sRGB">
<feFlood flood-opacity="0" result="BackgroundImageFix"/>
<feGaussianBlur in="BackgroundImageFix" stdDeviation="1.38953"/>
<feComposite in2="SourceAlpha" operator="in" result="effect1_backgroundBlur_1971_74979"/>
<feBlend mode="normal" in="SourceGraphic" in2="effect1_backgroundBlur_1971_74979" result="shape"/>
</filter>
<linearGradient id="paint0_linear_1971_74979" x1="3.8335" y1="16.1194" x2="23.225" y2="23.0755" gradientUnits="userSpaceOnUse">
<stop stop-color="#FBA076"/>
<stop offset="1" stop-color="#EE5230"/>
</linearGradient>
<linearGradient id="paint1_linear_1971_74979" x1="-0.0236464" y1="12.2727" x2="33.4685" y2="41.5376" gradientUnits="userSpaceOnUse">
<stop stop-color="white"/>
<stop offset="1" stop-color="white" stop-opacity="0"/>
</linearGradient>
<linearGradient id="paint2_linear_1971_74979" x1="14.3503" y1="9.50092" x2="19.8223" y2="17.9415" gradientUnits="userSpaceOnUse">
<stop stop-color="white" stop-opacity="0"/>
<stop offset="0.979167" stop-color="white"/>
</linearGradient>
<linearGradient id="paint3_linear_1971_74979" x1="15.0161" y1="21.6563" x2="7.97452" y2="21.6563" gradientUnits="userSpaceOnUse">
<stop stop-color="white" stop-opacity="0"/>
<stop offset="1" stop-color="white"/>
</linearGradient>
<linearGradient id="paint4_linear_1971_74979" x1="26.71" y1="9.50288" x2="32.1819" y2="17.9434" gradientUnits="userSpaceOnUse">
<stop stop-color="white" stop-opacity="0"/>
<stop offset="0.979167" stop-color="white"/>
</linearGradient>
<linearGradient id="paint5_linear_1971_74979" x1="27.3757" y1="21.6582" x2="20.3341" y2="21.6582" gradientUnits="userSpaceOnUse">
<stop stop-color="white" stop-opacity="0"/>
<stop offset="1" stop-color="white"/>
</linearGradient>
<linearGradient id="paint6_linear_1971_74979" x1="16.1101" y1="15.2691" x2="18.7043" y2="19.7617" gradientUnits="userSpaceOnUse">
<stop stop-color="white" stop-opacity="0"/>
<stop offset="0.979167" stop-color="white"/>
</linearGradient>
<linearGradient id="paint7_linear_1971_74979" x1="16.4836" y1="21.3434" x2="12.533" y2="21.3434" gradientUnits="userSpaceOnUse">
<stop stop-color="white" stop-opacity="0"/>
<stop offset="1" stop-color="white"/>
</linearGradient>
<linearGradient id="paint8_linear_1971_74979" x1="22.8696" y1="15.2544" x2="25.4638" y2="19.7471" gradientUnits="userSpaceOnUse">
<stop stop-color="white" stop-opacity="0"/>
<stop offset="0.979167" stop-color="white"/>
</linearGradient>
<linearGradient id="paint9_linear_1971_74979" x1="23.2431" y1="21.3287" x2="19.2925" y2="21.3287" gradientUnits="userSpaceOnUse">
<stop stop-color="white" stop-opacity="0"/>
<stop offset="1" stop-color="white"/>
</linearGradient>
<linearGradient id="paint10_linear_1971_74979" x1="19.413" y1="18.8443" x2="19.892" y2="20.9851" gradientUnits="userSpaceOnUse">
<stop stop-color="white" stop-opacity="0"/>
<stop offset="0.979167" stop-color="white"/>
</linearGradient>
<linearGradient id="paint11_linear_1971_74979" x1="19.7748" y1="21.1237" x2="15.9483" y2="21.1237" gradientUnits="userSpaceOnUse">
<stop stop-color="white" stop-opacity="0"/>
<stop offset="1" stop-color="white"/>
</linearGradient>
</defs>
</svg>
