<svg width="33" height="32" viewBox="0 0 33 32" fill="none" xmlns="http://www.w3.org/2000/svg">
<path d="M14.2784 3.49833C15.3363 2.33682 17.1638 2.33682 18.2216 3.49833L19.5819 4.99197C20.1164 5.57899 20.8848 5.89726 21.678 5.86019L23.696 5.76589C25.2652 5.69254 26.5576 6.98485 26.4843 8.55414L26.3899 10.5722C26.3528 11.3653 26.6711 12.1336 27.2582 12.6682L28.7518 14.0285C29.9134 15.0864 29.9134 16.9138 28.7518 17.9717L27.2582 19.332C26.6711 19.8665 26.3528 20.6349 26.3899 21.4281L26.4843 23.4461C26.5576 25.0153 25.2652 26.3077 23.696 26.2344L21.678 26.14C20.8848 26.1029 20.1164 26.4212 19.5819 27.0082L18.2216 28.5018C17.1638 29.6634 15.3363 29.6634 14.2784 28.5018L12.9182 27.0082C12.3836 26.4212 11.6152 26.1029 10.8221 26.14L8.80407 26.2344C7.23479 26.3077 5.94248 25.0153 6.01583 23.4461L6.11013 21.4281C6.1472 20.6349 5.82893 19.8665 5.24191 19.332L3.74827 17.9717C2.58676 16.9138 2.58676 15.0864 3.74827 14.0285L5.24191 12.6682C5.82893 12.1336 6.1472 11.3653 6.11013 10.5722L6.01583 8.55413C5.94248 6.98485 7.23479 5.69254 8.80408 5.76589L10.8221 5.86019C11.6152 5.89726 12.3836 5.57899 12.9182 4.99197L14.2784 3.49833Z" stroke="#65B168" stroke-width="2"/>
<path d="M12.25 15.9999L14.9167 18.6666L20.25 13.3333" stroke="#65B168" stroke-width="2" stroke-linecap="round" stroke-linejoin="round"/>
</svg>
