<svg width="33" height="32" viewBox="0 0 33 32" fill="none" xmlns="http://www.w3.org/2000/svg">
<path d="M3 26.6667V25.3333C3 20.1787 7.17868 16 12.3333 16" stroke="#F66C3B" stroke-width="2" stroke-linecap="round" stroke-linejoin="round"/>
<path d="M21.4051 16.4181C22.2608 15.4785 23.7392 15.4785 24.5949 16.4181C25.0275 16.893 25.6491 17.1505 26.2907 17.1205C27.5601 17.0611 28.6056 18.1066 28.5463 19.3761C28.5163 20.0177 28.7737 20.6393 29.2487 21.0718C30.1883 21.9275 30.1883 23.4059 29.2487 24.2617C28.7737 24.6942 28.5163 25.3158 28.5463 25.9574C28.6056 27.2269 27.5601 28.2723 26.2907 28.213C25.6491 28.183 25.0275 28.4405 24.5949 28.9154C23.7392 29.855 22.2608 29.855 21.4051 28.9154C20.9725 28.4405 20.3509 28.183 19.7093 28.213C18.4399 28.2723 17.3944 27.2269 17.4537 25.9574C17.4837 25.3158 17.2263 24.6942 16.7513 24.2617C15.8117 23.4059 15.8117 21.9275 16.7513 21.0718C17.2263 20.6393 17.4837 20.0177 17.4537 19.3761C17.3944 18.1066 18.4399 17.0611 19.7093 17.1205C20.3509 17.1505 20.9725 16.893 21.4051 16.4181Z" stroke="#F66C3B" stroke-width="2"/>
<path d="M20.8181 22.6667L22.2728 24.1212L25.1818 21.2122" stroke="#F66C3B" stroke-width="2" stroke-linecap="round" stroke-linejoin="round"/>
<path d="M12.3333 15.9999C15.2788 15.9999 17.6667 13.6121 17.6667 10.6666C17.6667 7.72107 15.2788 5.33325 12.3333 5.33325C9.38781 5.33325 7 7.72107 7 10.6666C7 13.6121 9.38781 15.9999 12.3333 15.9999Z" stroke="#F66C3B" stroke-width="2" stroke-linecap="round" stroke-linejoin="round"/>
</svg>
