<svg width="33" height="32" viewBox="0 0 33 32" fill="none" xmlns="http://www.w3.org/2000/svg">
<path d="M17.3282 26.2886L25.3282 21.7171C25.7436 21.4798 26 21.0379 26 20.5595V12.7737C26 12.2952 25.7436 11.8534 25.3282 11.616L17.3282 7.04458C16.9183 6.81034 16.4151 6.81034 16.0052 7.04458L8.00519 11.616C7.58976 11.8534 7.33337 12.2952 7.33337 12.7737V20.5595C7.33337 21.0379 7.58976 21.4798 8.00519 21.7171L16.0052 26.2886C16.4151 26.5228 16.9183 26.5228 17.3282 26.2886Z" stroke="#FFC147" stroke-width="2" stroke-linecap="round" stroke-linejoin="round"/>
<path d="M8.00012 12.6667L16.6668 17.3334M16.6668 17.3334L25.3335 12.6667M16.6668 17.3334V26.0001" stroke="#FFC147" stroke-width="2" stroke-linecap="round" stroke-linejoin="round"/>
<path d="M4.66675 4.01359L4.68008 3.99878" stroke="#FFC147" stroke-width="2" stroke-linecap="round" stroke-linejoin="round"/>
<path d="M4.66675 28.0136L4.68008 27.9988" stroke="#FFC147" stroke-width="2" stroke-linecap="round" stroke-linejoin="round"/>
<path d="M28.6667 4.01359L28.6801 3.99878" stroke="#FFC147" stroke-width="2" stroke-linecap="round" stroke-linejoin="round"/>
<path d="M28.6667 28.0136L28.6801 27.9988" stroke="#FFC147" stroke-width="2" stroke-linecap="round" stroke-linejoin="round"/>
</svg>
