<svg width="33" height="32" viewBox="0 0 33 32" fill="none" xmlns="http://www.w3.org/2000/svg">
<path d="M5.83331 18.6667V24.5334C5.83331 24.9753 6.19149 25.3334 6.63331 25.3334H13.8333" stroke="#EF6292" stroke-width="2" stroke-linecap="round" stroke-linejoin="round"/>
<path d="M25.8334 18.6667V24.5334C25.8334 24.9753 25.4752 25.3334 25.0334 25.3334H19.1667" stroke="#EF6292" stroke-width="2" stroke-linecap="round" stroke-linejoin="round"/>
<path d="M19.1667 6.66675H25.0334C25.4752 6.66675 25.8334 7.02492 25.8334 7.46675V13.3334" stroke="#EF6292" stroke-width="2" stroke-linecap="round" stroke-linejoin="round"/>
<path d="M5.83331 13.3334V7.46675C5.83331 7.02492 6.19149 6.66675 6.63331 6.66675H13.8333" stroke="#EF6292" stroke-width="2" stroke-linecap="round" stroke-linejoin="round"/>
<path d="M19.1666 25.3333V26.6666C19.1666 28.1394 17.9728 29.3333 16.5 29.3333C15.0272 29.3333 13.8333 28.1394 13.8333 26.6666V25.3333" stroke="#EF6292" stroke-width="2" stroke-linecap="round" stroke-linejoin="round"/>
<path d="M5.83331 13.3333H7.16665C8.63941 13.3333 9.83331 14.5271 9.83331 15.9999C9.83331 17.4727 8.63941 18.6666 7.16665 18.6666H5.83331" stroke="#EF6292" stroke-width="2" stroke-linecap="round" stroke-linejoin="round"/>
<path d="M25.8333 13.3333H27.1666C28.6394 13.3333 29.8333 14.5271 29.8333 15.9999C29.8333 17.4727 28.6394 18.6666 27.1666 18.6666H25.8333" stroke="#EF6292" stroke-width="2" stroke-linecap="round" stroke-linejoin="round"/>
<path d="M19.1666 6.66675V5.33341C19.1666 3.86065 17.9728 2.66675 16.5 2.66675C15.0272 2.66675 13.8333 3.86065 13.8333 5.33341V6.66675" stroke="#EF6292" stroke-width="2" stroke-linecap="round" stroke-linejoin="round"/>
</svg>
