<svg width="33" height="32" viewBox="0 0 33 32" fill="none" xmlns="http://www.w3.org/2000/svg">
<g clip-path="url(#clip0_7914_7838)">
<path d="M13.7699 12.8303L15.8479 8.42421C16.1147 7.8586 16.8853 7.8586 17.1521 8.42421L19.2301 12.8303L23.8772 13.5412C24.4735 13.6324 24.7111 14.3995 24.2795 14.8395L20.9173 18.2668L21.7108 23.1085C21.8127 23.7304 21.1891 24.2045 20.6556 23.9108L16.5 21.6236L12.3444 23.9108C11.8109 24.2045 11.1873 23.7304 11.2892 23.1085L12.0826 18.2668L8.7206 14.8395C8.28894 14.3995 8.52658 13.6324 9.12282 13.5412L13.7699 12.8303Z" stroke="#65B168" stroke-width="2" stroke-linecap="round" stroke-linejoin="round"/>
<path d="M29.8333 16H31.1666" stroke="#65B168" stroke-width="2" stroke-linecap="round" stroke-linejoin="round"/>
<path d="M16.5 2.66659V1.33325" stroke="#65B168" stroke-width="2" stroke-linecap="round" stroke-linejoin="round"/>
<path d="M16.5 30.6666V29.3333" stroke="#65B168" stroke-width="2" stroke-linecap="round" stroke-linejoin="round"/>
<path d="M27.1666 26.6666L25.8333 25.3333" stroke="#65B168" stroke-width="2" stroke-linecap="round" stroke-linejoin="round"/>
<path d="M27.1666 5.33325L25.8333 6.66659" stroke="#65B168" stroke-width="2" stroke-linecap="round" stroke-linejoin="round"/>
<path d="M5.83331 26.6666L7.16665 25.3333" stroke="#65B168" stroke-width="2" stroke-linecap="round" stroke-linejoin="round"/>
<path d="M5.83331 5.33325L7.16665 6.66659" stroke="#65B168" stroke-width="2" stroke-linecap="round" stroke-linejoin="round"/>
<path d="M1.83331 16H3.16665" stroke="#65B168" stroke-width="2" stroke-linecap="round" stroke-linejoin="round"/>
</g>
<defs>
<clipPath id="clip0_7914_7838">
<rect width="32" height="32" fill="white" transform="translate(0.5)"/>
</clipPath>
</defs>
</svg>
