<svg width="24" height="24" viewBox="0 0 24 24" fill="none" xmlns="http://www.w3.org/2000/svg">
<path d="M15.8643 9.17677C15.8325 8.38798 15.7448 7.60394 15.6989 6.81659C15.6588 6.13136 15.3631 5.84268 14.6785 5.80512C14.5231 5.79681 14.3672 5.78114 14.2119 5.7618C14.1943 5.75749 14.1764 5.75429 14.1585 5.75029C14.0067 5.71944 13.8527 5.70266 13.6966 5.68939C13.621 5.67789 13.5455 5.66718 13.4699 5.65647C13.4223 5.64959 13.3801 5.65071 13.3414 5.65855C13.3181 5.65647 13.2952 5.65423 13.2719 5.65167C13.2705 5.66318 13.2684 5.67501 13.2665 5.68604C13.1132 6.67815 12.8952 7.6284 12.5304 8.53242C12.5287 8.52235 12.2838 6.68355 12.287 6.67349C12.3095 6.62186 12.3292 6.57295 12.3522 6.5242C12.354 6.51924 12.3565 6.51413 12.3591 6.50917C12.3715 6.48232 12.3842 6.45195 12.3966 6.42542C12.403 6.41535 12.4091 6.40176 12.4157 6.39169C12.4347 6.35477 12.4561 6.31433 12.4561 6.26782C12.4561 6.22738 12.4407 6.19046 12.4281 6.1636L12.4217 6.14682C12.4217 6.13995 12.4185 6.13675 12.4153 6.13004C12.4121 6.12045 12.4061 6.1067 12.3995 6.09679L12.3963 6.09359C12.3931 6.08672 12.3931 6.08352 12.3899 6.08001C12.3648 6.04308 12.3365 6.03637 12.3143 6.0327H12.2865C12.2772 6.02582 12.2675 6.02582 12.2582 6.02582C12.2141 6.02263 12.1014 6.02263 11.9603 6.02263C11.8191 6.02263 11.7093 6.02263 11.6655 6.02582C11.6591 6.02582 11.6465 6.02582 11.6372 6.0327H11.6062C11.5843 6.03589 11.556 6.04277 11.5311 6.08001C11.5311 6.0832 11.5279 6.08688 11.5247 6.09008L11.5215 6.09695C11.5151 6.10702 11.5091 6.1206 11.5057 6.1302C11.5025 6.13707 11.5025 6.14027 11.4993 6.14698L11.4929 6.16057C11.4804 6.19093 11.4646 6.22786 11.4646 6.2683C11.4646 6.31481 11.4865 6.35525 11.5054 6.39217C11.5118 6.40224 11.5178 6.41582 11.5244 6.42589C11.5369 6.45243 11.5492 6.4828 11.5616 6.50965C11.5648 6.51652 11.568 6.52324 11.5706 6.52963C11.592 6.57694 11.6118 6.62378 11.6339 6.67396C11.6371 6.68403 11.4104 8.429 11.3911 8.5297C11.3112 8.33214 11.2386 8.13186 11.1723 7.92967L10.8876 6.90176C10.7949 6.5044 10.7204 6.09906 10.6566 5.68651C10.6549 5.67501 10.6526 5.66318 10.6512 5.65215C10.6279 5.65471 10.605 5.65678 10.5817 5.65902C10.543 5.65119 10.5008 5.65007 10.4532 5.65694C10.3776 5.66733 10.3021 5.67836 10.2265 5.68987C10.07 5.70346 9.91611 5.72024 9.76458 5.75077C9.74668 5.75477 9.72878 5.75796 9.7112 5.76228C9.55583 5.78162 9.39999 5.79696 9.24464 5.8056C8.56007 5.84348 8.26403 6.13183 8.22421 6.81706C8.17834 7.60442 8.09059 8.38842 8.05878 9.17725C8.04839 9.425 8.05558 9.66987 8.07269 9.91378C8.11025 10.4408 8.19832 10.9617 8.27456 11.4903C8.30541 11.7008 8.37158 11.8711 8.47036 12.0073C8.59424 12.1781 8.76894 12.2959 8.98921 12.3761C9.13355 12.4287 9.2846 12.4578 9.44108 12.495C9.44459 12.5198 9.44651 12.5481 9.44603 12.5802C9.44491 12.8334 9.50725 13.8695 9.59212 15.0882C9.59212 15.0897 9.59212 15.0911 9.59244 15.0925C9.59308 15.1191 9.59388 15.1456 9.595 15.172H9.5982C9.69602 16.5672 9.82165 18.1806 9.91404 19.1277C9.91979 19.1889 9.92731 19.2509 9.93514 19.3084C9.9369 19.7374 10.0636 20.0618 10.2839 20.2547C10.2839 20.2568 10.2857 20.259 10.2879 20.259C10.4115 20.3667 10.5639 20.4334 10.7415 20.4545C10.9098 20.4753 11.0996 20.4542 11.3066 20.3878C11.5283 20.3162 11.7304 20.1724 11.9611 20.0494C12.1917 20.1722 12.3939 20.3165 12.6156 20.3878C12.8226 20.4537 13.0124 20.4748 13.1807 20.4545C13.3583 20.4334 13.5112 20.3667 13.6343 20.259C13.6361 20.259 13.6383 20.2569 13.6383 20.2547C13.8589 20.0618 13.9853 19.7373 13.9871 19.3084C13.9949 19.2507 14.0024 19.1892 14.0082 19.1277C14.1006 18.1803 14.2262 16.5674 14.324 15.172H14.3272C14.3278 15.1454 14.3286 15.1189 14.3298 15.0925C14.3301 15.0911 14.3301 15.0897 14.3301 15.0882C14.415 13.8695 14.4773 12.8329 14.4762 12.5802C14.4759 12.5479 14.4776 12.5196 14.4811 12.495C14.6376 12.4578 14.7887 12.4284 14.933 12.3761C15.1314 12.3038 15.2931 12.2014 15.4138 12.0567C15.5337 11.9129 15.6133 11.727 15.648 11.4903C15.7271 10.9421 15.8187 10.4022 15.8538 9.85433C15.8687 9.62991 15.8741 9.40439 15.8644 9.17676L15.8643 9.17677Z" fill="#292A31"/>
<path d="M10.3574 2.3062C10.4083 1.75842 10.6765 1.35566 11.2142 1.14002C11.4538 1.04476 11.7054 1.00288 11.9614 1C12.2175 1.00288 12.4691 1.04476 12.7087 1.14002C13.2464 1.35516 13.5143 1.75826 13.5654 2.3062C13.573 2.38708 13.5669 2.46668 13.5669 2.54755C13.5623 3.1169 13.4291 3.65858 13.197 4.18012C13.0803 4.44002 12.908 4.66284 12.703 4.86359C12.4902 5.07154 12.2268 5.17143 11.9615 5.16105C11.6965 5.17112 11.4327 5.07154 11.22 4.86359C11.0148 4.66267 10.8426 4.44033 10.7259 4.18012C10.4939 3.65841 10.3604 3.11673 10.3561 2.54755C10.3561 2.46636 10.35 2.38708 10.3575 2.3062H10.3574Z" fill="#292A31"/>
<path d="M2.70905 20.3451C2.7212 20.3858 2.76307 20.4263 2.84539 20.465C3.19336 20.6282 3.58368 20.7202 3.95101 20.8323C5.19056 21.2111 6.45793 21.4767 7.75083 21.5613C9.47195 21.6736 11.1976 21.8194 12.9197 21.7972C15.3786 21.7657 17.8283 21.5379 20.193 20.7794C20.4565 20.6948 21.6202 20.48 21.0797 20.0737C20.9631 19.9859 20.8334 19.9161 20.6998 19.8568C20.1549 19.6145 19.5534 19.5588 18.9784 19.4228C18.1151 19.2187 17.2365 19.0844 16.356 18.9814C16.3023 18.975 16.2486 18.9678 16.1949 18.9674C15.847 18.9631 15.7301 18.8092 15.7477 18.4466C15.7824 17.7247 15.7584 17.7198 16.4785 17.7978C17.8526 17.9468 19.2154 18.1723 20.5147 18.6513C21.0951 18.8655 21.6659 19.1494 22.1764 19.4967C22.8251 19.9382 22.8079 20.5526 22.1957 21.0535C21.4756 21.6428 20.6036 21.9142 19.7284 22.1505C18.2268 22.5562 16.6938 22.8025 15.1406 22.8741C13.6204 22.9443 12.0956 23.0359 10.577 22.9855C8.10797 22.9032 5.64508 22.6809 3.29512 21.8315C2.77452 21.6435 2.26688 21.3715 1.81645 21.0499C1.17517 20.5919 1.19485 19.9887 1.80398 19.4895C2.51576 18.9059 3.37296 18.6112 4.24183 18.4096C5.42511 18.135 6.63111 17.9589 7.82798 17.7438C8.07796 17.6987 8.20823 17.7799 8.20104 18.0671C8.17706 19.0364 8.33642 18.8788 7.48991 18.9916C6.11116 19.1761 4.74166 19.4083 3.4294 19.8936C3.29929 19.9412 2.65002 20.1468 2.70915 20.3451L2.70905 20.3451Z" fill="#292A31"/>
</svg>
