<svg width="189" height="366" viewBox="0 0 189 366" fill="none" xmlns="http://www.w3.org/2000/svg">
<g clip-path="url(#clip0_1265_2138)">
<path d="M99.8835 334.55H130.191L125.505 305.206H95.2002L99.8835 334.55Z" fill="#D3CEC4"/>
<path d="M130.191 335.106H99.8835C99.611 335.106 99.3763 334.907 99.3334 334.638L94.6501 305.294C94.6249 305.133 94.6703 304.969 94.7763 304.845C94.8823 304.722 95.0362 304.651 95.2002 304.651H125.508C125.78 304.651 126.015 304.85 126.058 305.12L130.741 334.464C130.767 334.625 130.721 334.789 130.615 334.912C130.509 335.036 130.355 335.106 130.191 335.106ZM100.358 333.995H129.538L125.031 305.763H95.8512L100.358 333.995Z" fill="black"/>
<path d="M167.161 354.28V348.321C167.161 343.873 163.905 340.103 159.525 339.481L147.287 337.745C145.344 337.47 143.499 336.707 141.927 335.525L139.139 333.597C133.093 329.417 131.607 323.576 131.261 322.941H91.4606L88.902 353.892L167.163 354.278L167.161 354.28Z" fill="white"/>
<path d="M167.158 354.835L88.8969 354.449C88.743 354.449 88.5941 354.383 88.4881 354.268C88.3822 354.154 88.3317 354 88.3443 353.847L90.903 322.895C90.9257 322.608 91.1679 322.386 91.4581 322.386H131.259C131.463 322.386 131.65 322.497 131.748 322.676C131.814 322.797 131.879 322.976 131.99 323.271C132.578 324.841 134.365 329.623 139.454 333.141L142.243 335.069C143.754 336.203 145.518 336.933 147.365 337.195L159.603 338.932C164.228 339.587 167.716 343.624 167.716 348.321V354.28C167.716 354.429 167.658 354.57 167.552 354.673C167.448 354.777 167.307 354.835 167.158 354.835ZM89.5025 353.34L166.603 353.721V348.318C166.603 344.17 163.527 340.607 159.447 340.03L147.209 338.294C145.177 338.007 143.237 337.203 141.592 335.968L138.821 334.053C133.446 330.336 131.566 325.309 130.948 323.659C130.928 323.606 130.908 323.55 130.888 323.497H91.9703L89.5025 353.34Z" fill="black"/>
<path d="M88.6976 353.665C87.6075 353.665 86.7218 354.552 86.7193 355.651L86.694 363.843C86.694 365.035 87.6554 366.003 88.8389 366.003H167.161C169.023 366.003 170.532 364.483 170.532 362.611V357.062C170.532 355.19 169.023 353.67 167.161 353.67H88.6976V353.665Z" fill="black"/>
<path d="M167.178 354.22C167.178 354.22 167.155 354.22 167.145 354.22C166.838 354.202 166.605 353.94 166.621 353.633L166.87 349.271C167.123 344.858 164.042 341.033 159.699 340.371L144.998 338.125C144.905 338.113 144.814 338.153 144.763 338.231L137.181 349.83C137.012 350.087 136.669 350.16 136.411 349.991C136.154 349.823 136.081 349.48 136.25 349.223L143.832 337.624C144.122 337.18 144.645 336.949 145.167 337.027L159.868 339.272C164.781 340.023 168.268 344.347 167.981 349.334L167.731 353.696C167.713 353.99 167.468 354.22 167.176 354.22H167.178Z" fill="black"/>
<path d="M131.259 339.819C131.067 339.819 130.883 339.72 130.779 339.544C130.623 339.279 130.711 338.939 130.976 338.783L139.008 334.071C139.273 333.915 139.613 334.003 139.77 334.267C139.926 334.532 139.838 334.872 139.573 335.028L131.541 339.741C131.453 339.794 131.354 339.816 131.261 339.816L131.259 339.819Z" fill="black"/>
<path d="M103.896 354.061C101.344 343.702 94.0091 339.312 90.214 337.692L88.7858 353.706C88.3518 353.706 103.896 354.061 103.896 354.061Z" fill="#FFCE00"/>
<path d="M30.555 299.909L43.4795 327.239L68.1072 310.5L55.1802 283.172L30.555 299.909Z" fill="#D3CEC4"/>
<path d="M43.4795 327.794C43.4315 327.794 43.3811 327.786 43.3331 327.774C43.1767 327.731 43.0455 327.622 42.9774 327.474L30.0528 300.143C29.9368 299.896 30.0175 299.602 30.2421 299.448L54.8673 282.708C55.001 282.618 55.1701 282.59 55.3265 282.633C55.483 282.676 55.6142 282.784 55.6823 282.933L68.6068 310.263C68.7229 310.51 68.6421 310.805 68.4176 310.959L43.7924 327.698C43.699 327.761 43.5905 327.794 43.4795 327.794ZM31.2615 300.103L43.7066 326.415L67.4007 310.311L54.9556 283.999L31.2615 300.103Z" fill="black"/>
<path d="M33.1691 292.314L9.70972 304.503L34.3198 343.432C36.5352 346.937 40.1285 349.331 44.2137 350.021L69.1165 354.235C71.4304 340.874 62.8788 336.475 58.2914 335.091C56.409 334.524 54.7915 333.31 53.709 331.664L55.9523 324.089L33.1691 292.314Z" fill="white"/>
<path d="M69.1165 354.791C69.0862 354.791 69.0534 354.789 69.0231 354.784L44.1204 350.571C39.8888 349.855 36.1441 347.36 33.8479 343.729L9.23786 304.8C9.15459 304.669 9.12936 304.508 9.17226 304.359C9.21263 304.208 9.31356 304.082 9.45235 304.011L32.9118 291.823C33.1565 291.697 33.4593 291.767 33.6208 291.991L56.4065 323.767C56.5074 323.905 56.5352 324.084 56.4872 324.248L54.3197 331.571C55.3265 333 56.785 334.058 58.4529 334.562C62.6341 335.824 72.0991 340.274 69.6641 354.333C69.6161 354.602 69.3815 354.794 69.1165 354.794V354.791ZM10.5021 304.717L34.7891 343.135C36.9163 346.499 40.3859 348.809 44.3071 349.472L68.6573 353.592C70.5422 341.305 62.9041 337.062 58.1299 335.62C56.1314 335.018 54.3954 333.72 53.2448 331.964C53.1539 331.828 53.1312 331.659 53.1766 331.503L55.3416 324.188L32.9975 293.025L10.5021 304.712V304.717Z" fill="black"/>
<path d="M69.1165 354.792C69.0862 354.792 69.0534 354.789 69.0206 354.784C68.7178 354.731 68.516 354.444 68.5664 354.141C70.1713 344.866 66.4822 338.594 57.8953 336.006C57.2367 335.807 56.5983 335.532 56.0028 335.187C55.7378 335.033 55.647 334.693 55.8009 334.429C55.9548 334.164 56.2955 334.073 56.5604 334.227C57.0828 334.529 57.6379 334.771 58.2157 334.945C64.6326 336.88 71.8291 341.814 69.6616 354.335C69.6136 354.605 69.379 354.797 69.114 354.797L69.1165 354.792Z" fill="black"/>
<path d="M69.1165 354.237L44.2138 350.024C40.1285 349.333 36.5353 346.939 34.3198 343.434L9.70975 304.505L9.35901 303.956C8.58939 302.817 7.08044 302.454 5.87176 303.117L1.40042 305.896C0.0302517 306.647 -0.418901 308.411 0.431461 309.719L27.3024 351.155C30.5146 356.109 35.6496 359.486 41.4684 360.471L67.2821 364.841C68.685 365.077 70.0174 364.13 70.2621 362.721L71.2134 357.223C71.4582 355.814 70.517 354.481 69.1165 354.245V354.237Z" fill="#020202"/>
<path d="M16.7852 315.698C20.3077 313.052 22.8765 309.109 23.6865 304.424C24.1079 301.995 24.017 299.596 23.4922 297.341L9.70721 304.503L16.7852 315.698Z" fill="#FFCE00"/>
<path d="M42.4298 342.603C42.2305 342.603 42.0387 342.495 41.9377 342.308C41.7939 342.036 41.8974 341.701 42.1674 341.557L55.97 334.242C56.24 334.098 56.5781 334.202 56.7219 334.471C56.8658 334.743 56.7623 335.079 56.4923 335.222L42.6897 342.537C42.6064 342.58 42.5181 342.603 42.4298 342.603Z" fill="black"/>
<path d="M40.6508 333.995C40.3985 333.995 40.1714 333.824 40.1108 333.567C40.0402 333.267 40.2244 332.969 40.5247 332.899L48.3546 331.054C48.6523 330.984 48.9526 331.168 49.0232 331.468C49.0939 331.767 48.9097 332.065 48.6094 332.135L40.7795 333.98C40.7366 333.99 40.6937 333.995 40.6508 333.995Z" fill="black"/>
<path d="M89.6791 314.577L130.03 313.635L109.232 121.646L62.2581 119.918L89.6791 314.577Z" fill="#020202"/>
<path d="M91.8568 229.907H75.5207L70.2091 184.177H91.8568V229.907Z" fill="#020202"/>
<path d="M91.8568 230.462H75.5182C75.2356 230.462 74.9984 230.25 74.9656 229.97L69.654 184.24C69.6363 184.084 69.6843 183.925 69.7902 183.806C69.8962 183.688 70.0476 183.62 70.2066 183.62H91.8568C92.1646 183.62 92.4144 183.869 92.4144 184.177V229.907C92.4144 230.215 92.1646 230.464 91.8568 230.464V230.462ZM76.0153 229.35H91.3016V184.731H70.8349L76.0178 229.35H76.0153Z" fill="white"/>
<path d="M136.563 119.918L175.525 201.052C182.803 216.207 178.283 234.377 164.748 244.389L64.5821 318.468L40.9814 285.904L129.187 214.377L83.5777 119.918H136.56H136.563Z" fill="#020202"/>
<path d="M64.5846 319.022C64.5568 319.022 64.5291 319.022 64.4988 319.015C64.3525 318.992 64.2212 318.911 64.1329 318.79L40.5322 286.226C40.3581 285.987 40.4035 285.654 40.6331 285.468L128.498 214.218L109.366 174.599C109.232 174.321 109.349 173.989 109.626 173.858C109.901 173.724 110.234 173.84 110.368 174.117L129.689 214.133C129.8 214.365 129.74 214.644 129.538 214.806L41.7409 285.999L64.7032 317.682L164.418 243.938C177.711 234.108 182.169 216.169 175.023 201.289L136.06 120.154C135.927 119.877 136.045 119.545 136.32 119.414C136.598 119.28 136.931 119.399 137.062 119.673L176.025 200.808C183.403 216.169 178.798 234.685 165.079 244.832L64.9126 318.911C64.8167 318.982 64.7007 319.02 64.5821 319.02L64.5846 319.022Z" fill="white"/>
<path d="M103.974 43.5078H90.1106C89.8028 43.5078 89.553 43.2583 89.553 42.9509V25.5437C89.553 25.2363 89.8028 24.9868 90.1106 24.9868H103.974C104.282 24.9868 104.531 25.2363 104.531 25.5437V42.9509C104.531 43.2583 104.282 43.5078 103.974 43.5078ZM90.6683 42.3965H103.419V26.1006H90.6683V42.3965Z" fill="black"/>
<path d="M90.1106 30.7826V25.5413H103.974V37.1074C102.722 37.3569 100.229 37.6694 97.3652 36.7269C92.8837 35.2553 90.6834 31.7603 90.1106 30.7801V30.7826Z" fill="black"/>
<path d="M98.9221 33.7485C105.08 33.7485 110.073 28.2475 110.073 21.4617C110.073 14.6758 105.08 9.1748 98.9221 9.1748C92.7638 9.1748 87.7715 14.6758 87.7715 21.4617C87.7715 28.2475 92.7638 33.7485 98.9221 33.7485Z" fill="#D3CEC4"/>
<path d="M98.9221 34.3028C92.4674 34.3028 87.2164 28.5424 87.2164 21.4616C87.2164 14.3808 92.4674 8.62036 98.9221 8.62036C105.377 8.62036 110.628 14.3808 110.628 21.4616C110.628 28.5424 105.377 34.3028 98.9221 34.3028ZM98.9221 9.73162C93.0806 9.73162 88.3292 14.9931 88.3292 21.4616C88.3292 27.9301 93.0806 33.1915 98.9221 33.1915C104.764 33.1915 109.515 27.9301 109.515 21.4616C109.515 14.9931 104.764 9.73162 98.9221 9.73162Z" fill="black"/>
<path d="M110.022 20.3428C109.507 14.0834 104.736 9.17725 98.9196 9.17725C93.1033 9.17725 88.0365 14.3908 87.7816 20.9274C93.4743 21.4565 103.091 21.386 110.02 20.3428H110.022Z" fill="black"/>
<path d="M86.4922 20.3958C83.1992 12.9194 85.9143 4.49294 92.5658 1.56486C99.2199 -1.36574 107.295 2.30822 110.62 9.76954L86.4897 20.3983L86.4922 20.3958Z" fill="black"/>
<path d="M86.4922 20.3959C94.7309 19.5946 111.481 16.6841 117.441 12.5289C122.248 9.17745 117.511 8.5122 110.623 9.76961L86.4922 20.3984V20.3959Z" fill="black"/>
<path d="M98.3471 19.7307C98.1028 19.7307 97.8824 19.5606 97.8297 19.3116C97.7698 19.0266 97.9519 18.7464 98.2369 18.6865C106.684 16.8975 113.692 14.5913 116.981 12.5149C119.067 11.1978 118.973 10.6613 118.971 10.6565C118.794 10.2039 116.315 9.75127 111.137 10.6972L110.727 10.7715L110.557 10.3931C108.109 4.89688 102.668 1.44828 97.322 2.01107C97.0322 2.04221 96.7711 1.83146 96.7424 1.54168C96.7112 1.2519 96.922 0.99086 97.2118 0.962122C102.883 0.368196 108.636 3.89822 111.347 9.58842C113.987 9.131 119.246 8.46762 119.95 10.2757C120.403 11.4349 118.791 12.6203 117.541 13.4106C114.152 15.5516 107.017 17.9106 98.4524 19.7235C98.4165 19.7307 98.3782 19.7355 98.3423 19.7355L98.3471 19.7307Z" fill="black"/>
<path d="M101.064 14.5321C100.85 14.5321 100.648 14.4086 100.555 14.1995C100.431 13.9198 100.557 13.5897 100.84 13.4662L110.396 9.25805C110.676 9.13458 111.006 9.26057 111.13 9.54279C111.254 9.8225 111.128 10.1526 110.845 10.2761L101.289 14.4842C101.216 14.517 101.14 14.5321 101.064 14.5321Z" fill="black"/>
<path d="M182.649 107.913L134.779 53.0534C131.95 49.8128 128.016 48.0993 124.024 47.9834H123.979C123.709 47.9733 123.439 47.9733 123.169 47.9834L50.9662 48.0338V121.647L151.518 123.166L147.799 112.993L160.29 127.309L182.651 107.913H182.649Z" fill="white"/>
<path d="M101.935 48.0361H72.3313C72.3313 41.7843 78.8062 37.6165 84.5215 40.1918L101.935 48.0361Z" fill="white"/>
<path d="M101.935 48.5906H72.3313C72.0234 48.5906 71.7736 48.3411 71.7736 48.0337C71.7736 44.9116 73.3431 42.0364 75.9724 40.3405C78.6068 38.6396 81.8896 38.3952 84.7486 39.6828L102.162 47.5272C102.402 47.6355 102.533 47.8951 102.478 48.1496C102.422 48.4066 102.195 48.588 101.932 48.588L101.935 48.5906ZM72.9066 47.4793H99.3486L84.2919 40.6983C81.7761 39.5669 78.8919 39.7811 76.5755 41.2754C74.4231 42.6638 73.0782 44.9544 72.9066 47.4793Z" fill="black"/>
<path d="M151.516 123.723C151.289 123.723 151.077 123.582 150.994 123.358L130.232 66.5825C130.126 66.2952 130.274 65.9752 130.562 65.8693C130.852 65.7635 131.17 65.9122 131.276 66.1994L152.038 122.974C152.144 123.262 151.995 123.582 151.708 123.688C151.645 123.71 151.579 123.72 151.516 123.72V123.723Z" fill="black"/>
<path d="M76.8177 122.594H76.8102L50.9586 122.203C50.6558 122.198 50.4111 121.951 50.4111 121.646V83.8232C50.4111 83.5158 50.6609 83.2664 50.9687 83.2664C51.2766 83.2664 51.5264 83.5158 51.5264 83.8232V121.1L76.8304 121.483C77.1382 121.488 77.383 121.74 77.3779 122.047C77.3729 122.352 77.1256 122.594 76.8228 122.594H76.8177Z" fill="black"/>
<path d="M50.9662 48.5906C50.6584 48.5906 50.4086 48.3412 50.4086 48.0363C50.4086 47.7288 50.6584 47.4794 50.9637 47.4794L88.9852 47.4517C89.2931 47.4517 89.5429 47.7011 89.5429 48.006C89.5429 48.3135 89.2931 48.5629 88.9878 48.5629L50.9662 48.5906Z" fill="black"/>
<path d="M183.534 109.488C183.378 109.488 183.224 109.423 183.116 109.297L134.36 53.4187C131.756 50.4327 127.981 48.6537 124.009 48.5403C123.996 48.5403 123.986 48.5403 123.974 48.5403H123.964C123.704 48.5327 123.444 48.5327 123.184 48.5403L117.741 48.5453C117.433 48.5453 117.183 48.2958 117.183 47.9909C117.183 47.6835 117.433 47.4341 117.739 47.4341L123.166 47.429C123.431 47.4214 123.711 47.4214 123.991 47.429C124.007 47.429 124.024 47.429 124.039 47.4315C128.321 47.555 132.389 49.4701 135.198 52.6905L183.953 108.568C184.155 108.8 184.13 109.151 183.9 109.352C183.794 109.443 183.666 109.488 183.534 109.488Z" fill="black"/>
<path d="M113.03 23.6162L95.2482 40.0734L99.2073 44.3269L116.989 27.8697C118.112 26.8315 118.178 25.0802 117.136 23.9614L116.949 23.7623C115.907 22.6435 114.15 22.578 113.028 23.6162H113.03Z" fill="#D3CEC4"/>
<path d="M98.3569 37.1931L88.9878 45.864L89.3764 56.7397L99.4647 67.6381L114.065 54.1266L98.3569 37.1931Z" fill="#D3CEC4"/>
<path d="M114.463 37.362L112.354 35.0967L108.089 39.0453L110.489 41.6231L103.858 47.7615L107.817 52.015L114.135 46.1664C116.664 43.8255 116.81 39.8869 114.463 37.3646V37.362Z" fill="#D3CEC4"/>
<path d="M116.189 44.4956L113.648 41.7969L109.384 45.7455L111.784 48.3233L105.152 54.4617L109.111 58.7152L115.904 52.471C118.205 50.3543 118.334 46.7736 116.192 44.4982L116.189 44.4956Z" fill="#D3CEC4"/>
<path d="M107.048 45.2646L88.9904 45.8596L89.7402 68.5512L107.797 67.9562L107.048 45.2646Z" fill="#D3CEC4"/>
<path d="M89.606 64.6168L89.7372 68.5578L107.792 67.9632L107.683 61.5325L89.606 64.6168Z" fill="black"/>
<path d="M93.7493 50.3217L99.8406 45.9547C99.8406 45.9547 92.3388 39.2469 90.5422 37.5787C90.2192 37.3368 88.5386 35.268 84.7183 34.1517C84.6325 34.1517 81.2134 32.7532 78.5563 35.5931L78.4882 35.6661C77.3754 36.8555 77.9129 38.8009 79.4799 39.2494C81.3345 39.7811 82.7148 40.0583 84.3045 41.5349L93.7493 50.3217Z" fill="#D3CEC4"/>
<path d="M89.1997 69.13L88.4251 46.1287L83.9234 41.9432C82.5886 40.7034 81.443 40.3808 79.8584 39.9348L79.331 39.7862C78.4024 39.5191 77.6959 38.8085 77.441 37.8811C77.1862 36.9589 77.4233 35.9887 78.0794 35.2882L78.1501 35.2126C80.5851 32.6121 83.6206 33.2194 84.8142 33.5999L84.8747 33.6175C88.2812 34.6104 90.0425 36.3264 90.7062 36.9715C90.7844 37.0471 90.8399 37.105 90.8777 37.1353L90.9206 37.1705C91.5061 37.7148 92.7602 38.8538 94.6501 40.5522C94.8772 40.7588 94.8974 41.1091 94.6905 41.3359C94.4861 41.5627 94.1328 41.5828 93.9057 41.3762C92.0259 39.6854 90.7718 38.5464 90.1763 37.9945C90.1182 37.9467 90.0375 37.8685 89.929 37.7652C89.3209 37.1731 87.7084 35.6057 84.5795 34.6885C84.5467 34.6809 84.5114 34.6683 84.471 34.6557C83.2396 34.2626 80.8879 33.9098 78.9601 35.9686L78.8894 36.0442C78.5008 36.4599 78.3595 37.0345 78.5109 37.5813C78.6623 38.1331 79.0837 38.5565 79.6363 38.7152L80.1561 38.8614C81.761 39.3124 83.1463 39.7005 84.6804 41.1242L89.5177 45.6247L90.2696 67.9784L107.221 67.4215L107.08 59.8291L115.546 52.0377C116.545 51.118 117.123 49.8656 117.173 48.5124C117.224 47.1593 116.744 45.8666 115.818 44.8738L115.291 44.3068C115.082 44.0825 115.094 43.7297 115.319 43.5206C115.543 43.3114 115.897 43.324 116.106 43.5483L116.633 44.1153C117.761 45.3248 118.349 46.9022 118.286 48.5528C118.223 50.2058 117.519 51.7328 116.3 52.8542L108.203 60.3079L108.357 68.495L89.1972 69.1249L89.1997 69.13Z" fill="black"/>
<path d="M112.563 31.8235L100.005 43.4476L103.964 47.7011L113.404 38.9648C115.127 37.3697 115.228 34.6835 113.628 32.9675L112.566 31.826L112.563 31.8235Z" fill="#D3CEC4"/>
<path d="M107.814 52.567C107.665 52.567 107.517 52.5065 107.406 52.3881C107.196 52.1638 107.209 51.811 107.436 51.6019L113.754 45.7533C116.033 43.6442 116.184 40.0659 114.087 37.7754C113.88 37.5486 113.896 37.1983 114.123 36.9892C114.35 36.7826 114.703 36.7977 114.91 37.0245C117.416 39.7636 117.239 44.0448 114.511 46.5672L108.193 52.4158C108.087 52.5141 107.951 52.5645 107.814 52.5645V52.567Z" fill="black"/>
<path d="M104.267 47.9732C104.118 47.9732 103.969 47.9128 103.858 47.7943C103.648 47.5701 103.661 47.2173 103.888 47.0081L113.022 38.554C113.747 37.8837 114.166 36.9715 114.203 35.9888C114.241 35.0035 113.891 34.0661 113.217 33.3429L112.223 32.277C112.013 32.0527 112.026 31.7 112.25 31.4908C112.475 31.2817 112.828 31.2943 113.038 31.5185L114.032 32.5844C114.907 33.5243 115.362 34.7465 115.314 36.0291C115.266 37.3117 114.721 38.496 113.777 39.3704L104.643 47.8246C104.537 47.9228 104.4 47.9732 104.264 47.9732H104.267Z" fill="black"/>
<path d="M99.7725 44.3572C99.6236 44.3572 99.4747 44.2967 99.3637 44.1783C99.1543 43.954 99.1669 43.6012 99.394 43.3921L116.611 27.459C117.045 27.0583 117.294 26.5115 117.317 25.9219C117.34 25.3322 117.13 24.7703 116.727 24.3369L116.54 24.1378C115.71 23.2458 114.302 23.1928 113.406 24.0219L92.8258 43.067C92.6012 43.2762 92.2479 43.2636 92.0385 43.0368C91.829 42.8125 91.8417 42.4597 92.0688 42.2506L112.649 23.2054C113.994 21.9606 116.106 22.0387 117.355 23.3793L117.542 23.5784C118.147 24.2285 118.463 25.0752 118.43 25.9622C118.397 26.8492 118.019 27.6706 117.368 28.2729L100.151 44.206C100.045 44.3043 99.9088 44.3547 99.7725 44.3547V44.3572Z" fill="black"/>
<path d="M86.4922 66.3933H116.131V118.998C116.131 127.16 109.497 133.785 101.324 133.785H101.299C93.126 133.785 86.4922 127.16 86.4922 118.998V66.3933Z" fill="white"/>
<path d="M111.261 107.913L88.8995 127.308L41.0294 72.4484C35.6572 66.2924 36.3082 56.9588 42.4828 51.6041C48.6574 46.2494 58.0189 46.897 63.3911 53.0531L111.261 107.913Z" fill="white"/>
<path d="M89.5682 128.576C89.4142 128.576 89.2578 128.51 89.1493 128.384L40.613 72.8114C37.9181 69.7221 36.5883 65.7709 36.8734 61.6862C37.1586 57.6015 39.0208 53.8696 42.122 51.1809C48.5186 45.6322 58.2486 46.3075 63.815 52.6853L86.9136 79.1564C87.1155 79.3882 87.0903 79.7385 86.8606 79.9401C86.6285 80.1417 86.2777 80.1165 86.0759 79.8872L62.9773 53.416C57.8146 47.4994 48.7861 46.8745 42.8537 52.02C39.9797 54.5122 38.2512 57.9745 37.9862 61.7618C37.7213 65.5492 38.9552 69.213 41.4533 72.0781L89.9896 127.651C90.1914 127.883 90.1687 128.233 89.9366 128.435C89.8306 128.526 89.7019 128.571 89.5707 128.571L89.5682 128.576Z" fill="black"/>
<path d="M101.312 134.339C96.5048 134.339 92.0637 132.159 89.1266 128.359C88.9399 128.117 88.9828 127.767 89.2275 127.581C89.4698 127.394 89.8205 127.437 90.0072 127.681C92.7324 131.207 96.853 133.228 101.312 133.228C109.177 133.228 115.576 126.85 115.576 119.008V66.9478H87.0499V109.528C87.0499 109.836 86.8001 110.085 86.4922 110.085C86.1844 110.085 85.9346 109.836 85.9346 109.528V66.3909C85.9346 66.0834 86.1844 65.834 86.4922 65.834H116.131C116.439 65.834 116.689 66.0834 116.689 66.3909V119.008C116.689 127.462 109.79 134.339 101.312 134.339Z" fill="black"/>
<path d="M92.6416 113.976L89.8508 118.557C90.3226 120.671 92.3085 122.095 94.4685 121.873L95.2608 121.79L98.854 116.851L102.556 115.639L109.429 115.775L109.26 107.555L103.542 107.689C99.071 107.792 94.958 110.163 92.6365 113.976H92.6416Z" fill="#D3CEC4"/>
<path d="M121.491 122.654L106.573 141.364C104.478 143.99 101.042 145.162 97.774 144.363L90.2949 142.533C88.3973 142.07 86.6209 141.2 85.0892 139.988L81.5591 137.189C80.0501 135.992 79.8003 133.805 80.9989 132.3L81.3017 131.922C82.5003 130.418 84.6956 130.168 86.2045 131.365L88.5109 133.195C90.0047 134.379 91.7382 135.228 93.5928 135.682L97.4737 136.632C99.177 137.048 100.969 136.438 102.061 135.07L115.654 118.03L121.496 122.662L121.491 122.654Z" fill="#D3CEC4"/>
<path d="M114.34 131.645L99.8759 149.685C98.8414 150.952 97.5444 151.98 96.0733 152.701L92.6794 154.362C91.2285 155.072 89.4773 154.475 88.7657 153.029L88.5865 152.666C87.875 151.219 88.473 149.473 89.9239 148.762L92.1419 147.679C93.5777 146.976 94.8444 145.973 95.8563 144.736L108.316 129.15L114.345 131.648L114.34 131.645Z" fill="#D3CEC4"/>
<path d="M91.3951 155.216C90.1082 155.216 88.8692 154.503 88.2636 153.276L88.0844 152.913C87.6757 152.081 87.6151 151.139 87.9154 150.262C88.2157 149.382 88.8414 148.674 89.6767 148.266L91.8947 147.183C93.2497 146.52 94.4685 145.552 95.4223 144.385L95.874 143.821C96.0657 143.582 96.4165 143.544 96.6562 143.735C96.8959 143.927 96.9338 144.277 96.742 144.517L96.2853 145.086C95.228 146.379 93.8805 147.45 92.3817 148.18L90.1637 149.264C89.5959 149.541 89.1695 150.025 88.9651 150.62C88.7607 151.217 88.8011 151.854 89.0812 152.421L89.2603 152.784C89.8356 153.953 91.2563 154.437 92.4296 153.863L95.8235 152.202C97.2139 151.522 98.4629 150.531 99.4394 149.335L107.128 139.721C107.32 139.482 107.671 139.442 107.91 139.633C108.15 139.825 108.19 140.175 107.999 140.414L100.307 150.033C99.2275 151.355 97.8472 152.449 96.3156 153.2L92.9217 154.861C92.4296 155.1 91.9073 155.216 91.3951 155.216Z" fill="black"/>
<path d="M113.081 124.272L104.446 135.102C102.351 137.728 98.9146 138.9 95.6469 138.101L88.1677 136.272C86.2676 135.808 84.4937 134.939 82.9621 133.727L79.4319 130.927C77.923 129.73 77.6732 127.543 78.8718 126.038L79.1746 125.66C80.3731 124.156 82.5684 123.907 84.0774 125.104L86.3837 126.933C87.8775 128.117 89.6111 128.966 91.4657 129.42L95.3466 130.37C97.0498 130.786 98.8414 130.176 99.934 128.808L107.242 119.646L113.083 124.277L113.081 124.272Z" fill="#D3CEC4"/>
<path d="M111.786 118.25L103.151 129.08C101.057 131.706 97.6201 132.877 94.3524 132.079L86.8732 130.249C84.9757 129.785 83.1992 128.916 81.6676 127.704L78.1375 124.904C76.6285 123.708 76.3787 121.52 77.5773 120.016L77.8801 119.638C79.0787 118.134 81.274 117.884 82.7829 119.081L85.0892 120.91C86.583 122.095 88.3166 122.944 90.1712 123.398L94.0521 124.348C95.7553 124.763 97.5469 124.154 98.6395 122.785L105.947 113.623L111.789 118.255L111.786 118.25Z" fill="#D3CEC4"/>
<path d="M104.605 107.575L120.441 107.427L121.034 129.672L118.501 129.667C116.956 129.662 115.495 130.36 114.534 131.567L110.116 137.106L96.048 125.953L104.284 115.626L104.602 107.578L104.605 107.575Z" fill="#D3CEC4"/>
<path d="M96.3938 132.877C95.6696 132.877 94.9403 132.792 94.2212 132.615L86.742 130.786C84.7789 130.307 82.9066 129.39 81.3244 128.135L77.7943 125.335C76.949 124.665 76.414 123.705 76.2929 122.634C76.1718 121.563 76.4746 120.51 77.1458 119.666L77.4486 119.288C78.8364 117.546 81.3875 117.257 83.1336 118.64L85.44 120.47C86.8606 121.596 88.5437 122.42 90.3075 122.851L94.1884 123.801C95.6771 124.164 97.2542 123.627 98.208 122.432L103.795 115.427C103.986 115.188 104.337 115.148 104.577 115.339C104.817 115.531 104.857 115.881 104.665 116.12L99.0786 123.125C97.8548 124.658 95.8336 125.348 93.9234 124.882L90.0425 123.932C88.1248 123.463 86.2929 122.566 84.7486 121.341L82.4423 119.512C81.1755 118.509 79.3285 118.718 78.3217 119.981L78.0189 120.359C77.5319 120.968 77.3123 121.732 77.4006 122.508C77.489 123.284 77.875 123.98 78.4882 124.466L82.0183 127.266C83.4743 128.42 85.2003 129.264 87.0095 129.707L94.4886 131.537C97.5368 132.283 100.769 131.181 102.722 128.732L104.113 126.988C104.304 126.749 104.655 126.709 104.895 126.9C105.135 127.092 105.175 127.442 104.983 127.681L103.593 129.425C101.832 131.633 99.1568 132.88 96.3988 132.88L96.3938 132.877Z" fill="black"/>
<path d="M97.6883 138.902C96.9641 138.902 96.2348 138.817 95.5157 138.64L88.0365 136.811C86.0734 136.33 84.201 135.415 82.6189 134.16L79.0888 131.36C78.2435 130.69 77.7085 129.73 77.5874 128.659C77.4663 127.588 77.7691 126.535 78.4403 125.691L78.6396 125.441C78.8314 125.202 79.1821 125.161 79.4219 125.353C79.6616 125.545 79.7019 125.895 79.5102 126.134L79.3108 126.384C78.8238 126.993 78.6043 127.757 78.6926 128.533C78.7809 129.309 79.167 130.005 79.7802 130.491L83.3103 133.291C84.7663 134.445 86.4922 135.289 88.3015 135.732L95.7806 137.562C98.8313 138.308 102.061 137.206 104.012 134.757L106.563 131.557C106.755 131.318 107.105 131.277 107.345 131.469C107.585 131.66 107.625 132.01 107.433 132.25L104.882 135.45C103.121 137.658 100.449 138.905 97.6883 138.905V138.902Z" fill="black"/>
<path d="M99.8129 145.162C99.0887 145.162 98.3595 145.076 97.6403 144.9L90.1611 143.07C88.198 142.589 86.3257 141.674 84.7436 140.419L81.2134 137.62C80.3681 136.949 79.8332 135.989 79.712 134.918C79.5909 133.848 79.8937 132.794 80.5649 131.95C80.7567 131.711 81.1074 131.67 81.3472 131.862C81.5869 132.053 81.6272 132.404 81.4355 132.643C80.9485 133.253 80.7289 134.016 80.8173 134.792C80.9056 135.569 81.2916 136.264 81.9048 136.75L85.4349 139.55C86.8909 140.704 88.6169 141.548 90.4261 141.992L97.9052 143.821C100.953 144.567 104.186 143.466 106.139 141.017L113.954 131.214C115.024 129.874 116.621 129.105 118.337 129.105H118.357L120.461 129.113L119.899 107.986L102.402 108.19C99.7902 108.21 97.3627 109.39 95.7402 111.426L91.3572 116.922C90.9131 117.476 90.7138 118.171 90.7945 118.877C90.8752 119.583 91.226 120.215 91.7836 120.656L92.0057 120.832C93.1563 121.745 94.8394 121.556 95.7554 120.407L98.3847 117.111C99.4016 115.836 100.921 115.097 102.556 115.082L107.269 115.14C107.577 115.145 107.822 115.395 107.819 115.702C107.817 116.009 107.542 116.264 107.257 116.251L102.556 116.193C101.271 116.203 100.065 116.791 99.2577 117.801L96.6284 121.097C95.3315 122.722 92.9494 122.994 91.3168 121.702L91.0948 121.525C90.305 120.898 89.8054 120.001 89.6918 119C89.5783 118 89.8609 117.015 90.4892 116.229L94.8722 110.733C96.7067 108.435 99.447 107.102 102.394 107.079L120.986 106.862L121.609 130.229L118.357 130.216H118.339C116.961 130.216 115.682 130.831 114.827 131.907L107.012 141.709C105.251 143.917 102.578 145.162 99.8179 145.162H99.8129Z" fill="black"/>
<path d="M120.845 134.692V105.141H173.653C181.816 105.141 188.442 111.759 188.442 119.91V119.92C188.442 128.072 181.816 134.689 173.653 134.689H120.845V134.692Z" fill="white"/>
<path d="M173.623 135.249H120.845C120.537 135.249 120.287 134.999 120.287 134.692V105.141C120.287 104.834 120.537 104.584 120.845 104.584H163.921C164.228 104.584 164.478 104.834 164.478 105.141C164.478 105.449 164.228 105.698 163.921 105.698H121.402V134.137H173.623C181.488 134.137 187.887 127.76 187.887 119.918C187.887 116.052 185.793 111.965 181.48 107.419C181.269 107.198 181.279 106.845 181.503 106.633C181.725 106.421 182.078 106.432 182.29 106.653C186.807 111.416 189.003 115.755 189.003 119.918C189.003 128.372 182.104 135.249 173.625 135.249H173.623Z" fill="black"/>
</g>
<defs>
<clipPath id="clip0_1265_2138">
<rect width="189" height="366" fill="white"/>
</clipPath>
</defs>
</svg>
