<svg width="20" height="20" viewBox="0 0 20 20" fill="none" xmlns="http://www.w3.org/2000/svg">
<path d="M2.14456 7.05276L9.35988 3.44512C9.50063 3.37474 9.6663 3.37474 9.80705 3.44512L17.0224 7.05276C17.3909 7.23703 17.3909 7.76293 17.0224 7.9472L9.80705 11.5548C9.6663 11.6252 9.50063 11.6252 9.35988 11.5548L2.14456 7.9472C1.77603 7.76293 1.77603 7.23703 2.14456 7.05276Z" stroke="#FB6514" stroke-width="1.25" stroke-linecap="round" stroke-linejoin="round"/>
<path d="M18.7502 10.8333V7.91665L17.0835 7.08331" stroke="#FB6514" stroke-width="1.25" stroke-linecap="round" stroke-linejoin="round"/>
<path d="M3.75 8.75V13.2601C3.75 13.9036 4.12049 14.4897 4.70183 14.7657L8.8685 16.744C9.32083 16.9587 9.84583 16.9587 10.2982 16.744L14.4648 14.7657C15.0462 14.4897 15.4167 13.9036 15.4167 13.2601V8.75" stroke="#FB6514" stroke-width="1.25" stroke-linecap="round" stroke-linejoin="round"/>
</svg>
