<svg width="160" height="29" viewBox="0 0 160 29" fill="none" xmlns="http://www.w3.org/2000/svg">
<g clip-path="url(#clip0_742_7250)">
<path d="M41.1872 19.4749C38.0804 19.4749 35.7261 17.1206 35.7261 14.0385C35.7261 10.9564 38.0804 8.62109 41.1872 8.62109C43.7723 8.62109 45.7799 10.1906 46.3585 12.5639H44.236C43.6954 11.3773 42.5382 10.6495 41.1872 10.6495C39.3155 10.6495 37.9065 12.1231 37.9065 14.0375C37.9065 15.9519 39.3345 17.4445 41.1872 17.4445C42.5572 17.4445 43.6564 16.7168 44.217 15.4541H46.3775C45.8179 17.8654 43.7533 19.4739 41.1872 19.4739V19.4749Z" fill="#414141"/>
<path d="M53.3055 19.4749C50.1028 19.4749 47.7295 17.1586 47.7295 14.0385C47.7295 10.9184 50.1028 8.62109 53.3055 8.62109C56.5083 8.62109 58.8626 10.9374 58.8626 14.0385C58.8626 17.1396 56.4893 19.4749 53.3055 19.4749ZM53.3055 17.4455C55.2741 17.4455 56.6821 16.0289 56.6821 14.0385C56.6821 12.048 55.2732 10.6505 53.3055 10.6505C51.3379 10.6505 49.9099 12.0671 49.9099 14.0385C49.9099 16.0099 51.3189 17.4455 53.3055 17.4455Z" fill="#414141"/>
<path d="M69.2488 5.17627H71.3903V19.2261H69.7694L69.4796 18.0395C68.5533 18.9392 67.2612 19.475 65.8142 19.475C62.6495 19.475 60.3921 17.1397 60.3921 14.0577C60.3921 10.9756 62.6495 8.62128 65.8142 8.62128C67.1453 8.62128 68.3224 9.06117 69.2488 9.82694V5.17627ZM65.9681 17.4457C67.9367 17.4457 69.3837 15.9721 69.3837 14.0387C69.3837 12.1052 67.9367 10.6507 65.9681 10.6507C63.9996 10.6507 62.5725 12.1052 62.5725 14.0387C62.5725 15.9721 64.0195 17.4457 65.9681 17.4457Z" fill="#414141"/>
<path d="M74.4097 7.2824V5.08105H76.6091V7.2824H74.4097ZM74.4486 19.2069V8.87094H76.5901V19.2069H74.4486Z" fill="#414141"/>
<path d="M85.1295 8.64111C87.5798 8.64111 89.1046 10.4406 89.1046 12.9859V19.207H86.9631V13.4267C86.9631 11.5512 86.1337 10.5555 84.5708 10.5555C82.931 10.5555 81.7728 11.8572 81.7728 13.6756V19.207H79.6313V8.87103H81.1173L81.542 10.3256C82.3134 9.27292 83.6065 8.64111 85.1304 8.64111H85.1295Z" fill="#414141"/>
<path d="M100.52 8.87102H101.929V17.8674C101.929 21.1594 99.9601 23.1698 96.7384 23.1698C94.0563 23.1698 92.1656 21.7912 91.645 19.5329H93.7675C94.1731 20.6625 95.4083 21.2934 96.7203 21.2934C98.515 21.2934 99.8461 20.1067 99.8461 18.1543V17.6755C98.9388 18.4602 97.7426 18.9201 96.3916 18.9201C93.4777 18.9201 91.2402 16.6807 91.2402 13.7716C91.2402 10.8624 93.4786 8.62305 96.3916 8.62305C97.9165 8.62305 99.2475 9.23585 100.193 10.2116L100.522 8.87197L100.52 8.87102ZM96.6225 16.9486C98.4751 16.9486 99.8252 15.609 99.8252 13.7716C99.8252 11.9341 98.4941 10.6135 96.6225 10.6135C94.7508 10.6135 93.4188 11.9721 93.4188 13.7716C93.4188 15.571 94.7698 16.9486 96.6225 16.9486Z" fill="#414141"/>
<path d="M110.126 8.6792C112.634 8.6792 114.197 10.4597 114.197 13.0819V19.2071H113.252V13.2738C113.252 10.9195 112.017 9.54093 109.913 9.54093C107.81 9.54093 106.228 11.2444 106.228 13.3118V19.2071H105.283V8.87112H105.977L106.17 10.9765C106.923 9.57893 108.408 8.6792 110.125 8.6792H110.126Z" fill="#414141"/>
<path d="M117.508 6.74591V5.42529H118.704V6.74591H117.508ZM117.643 19.2072V8.87125H118.589V19.2072H117.643Z" fill="#414141"/>
<path d="M127.066 8.6792C129.574 8.6792 131.137 10.4597 131.137 13.0819V19.2071H130.192V13.2738C130.192 10.9195 128.957 9.54093 126.853 9.54093C124.75 9.54093 123.168 11.2444 123.168 13.3118V19.2071H122.223V8.87112H122.917L123.11 10.9765C123.863 9.57893 125.348 8.6792 127.065 8.6792H127.066Z" fill="#414141"/>
<path d="M134.699 6.74591V5.42529H135.876V6.74591H134.699ZM131.959 22.8822V22.0204H132.403C133.928 22.0204 134.815 21.1397 134.815 19.6281V8.87125H135.76V19.6861C135.76 21.6385 134.487 22.8831 132.519 22.8831H131.959V22.8822Z" fill="#414141"/>
<path d="M148.496 8.87114H149.268V19.2071H148.477L148.361 16.9678C147.455 18.4604 145.834 19.418 143.827 19.418C140.778 19.418 138.481 17.1017 138.481 14.0396C138.481 10.9775 140.778 8.68018 143.827 8.68018C145.833 8.68018 147.454 9.63691 148.361 11.1304L148.496 8.87209V8.87114ZM143.885 18.5183C146.451 18.5183 148.322 16.6229 148.322 14.0396C148.322 11.4563 146.451 9.57991 143.885 9.57991C141.318 9.57991 139.447 11.5133 139.447 14.0396C139.447 16.5659 141.357 18.5183 143.885 18.5183Z" fill="#414141"/>
<path d="M156.006 19.418C153.613 19.418 152.109 18.2314 151.973 16.2979H152.899C153.034 17.7335 154.23 18.5563 156.025 18.5563C157.819 18.5563 159.054 17.7335 159.054 16.4319C159.054 14.8243 157.491 14.5365 155.87 14.2685C154.075 13.9626 152.166 13.6177 152.166 11.4934C152.166 9.80885 153.69 8.6792 155.947 8.6792C158.203 8.6792 159.651 9.82785 159.729 11.6653H158.822C158.745 10.3067 157.684 9.52192 155.928 9.52192C154.172 9.52192 153.091 10.3067 153.091 11.4743C153.091 12.8719 154.5 13.1009 156.101 13.3698C157.914 13.6757 159.998 14.0206 159.998 16.3939C159.998 18.2314 158.396 19.418 156.004 19.418H156.006Z" fill="#414141"/>
<path d="M13.8674 28.0693C21.5262 28.0693 27.7349 21.7858 27.7349 14.0347C27.7349 6.28353 21.5262 0 13.8674 0C6.20866 0 0 6.28353 0 14.0347C0 21.7858 6.20866 28.0693 13.8674 28.0693Z" fill="#414141"/>
<path d="M5.02893 14.0786C4.98712 15.5103 5.23605 16.9421 5.69399 18.3302C6.11012 19.5092 6.90059 20.5201 7.94189 21.2356C9.14849 21.9937 10.5337 22.2882 11.9788 22.2882H20.8431V18.0661H11.9645C9.79645 18.0661 8.75516 16.5754 8.75516 14.0871V14.09C8.75516 11.6017 9.7974 10.1167 11.9645 10.1167H20.8421V5.89453H11.9778C10.5765 5.89453 9.14849 6.18906 7.94094 6.94723C6.90059 7.66264 6.11012 8.67258 5.69304 9.85259C5.2351 11.2416 4.98617 12.6724 5.02798 14.1042" fill="url(#paint0_linear_742_7250)"/>
<path fill-rule="evenodd" clip-rule="evenodd" d="M10.4131 13.2148L14.5745 14.0196C14.5745 14.0196 11.5218 17.229 10.4131 13.2148Z" fill="white"/>
<path fill-rule="evenodd" clip-rule="evenodd" d="M20.1722 13.229L16.1372 14.0755C16.1372 14.0755 19.6316 17.2507 20.1722 13.229Z" fill="white"/>
</g>
<defs>
<linearGradient id="paint0_linear_742_7250" x1="5.02418" y1="14.0919" x2="20.8421" y2="14.0919" gradientUnits="userSpaceOnUse">
<stop stop-color="#F16222"/>
<stop offset="0.26" stop-color="#F37421"/>
<stop offset="0.71" stop-color="#F68D1E"/>
<stop offset="1" stop-color="#F7981D"/>
</linearGradient>
<clipPath id="clip0_742_7250">
<rect width="160" height="28.0693" fill="white"/>
</clipPath>
</defs>
</svg>
