<svg width="54" height="55" viewBox="0 0 54 55" fill="none" xmlns="http://www.w3.org/2000/svg">
<g filter="url(#filter0_d_7918_7778)">
<rect width="54" height="54" rx="8" fill="white" shape-rendering="crispEdges"/>
<rect x="0.5" y="0.5" width="53" height="53" rx="7.5" stroke="#F2F2F2" shape-rendering="crispEdges"/>
<path d="M13.4749 15.0693L15.0656 13.4786L40.5176 38.9306L38.9269 40.5213L13.4749 15.0693Z" fill="#55A1FF"/>
<path d="M15.0693 40.5247L13.4786 38.9339L38.9306 13.4819L40.5213 15.0727L15.0693 40.5247Z" fill="#55A1FF"/>
<path d="M27 37.125C21.408 37.125 16.875 32.5918 16.875 27C16.875 21.408 21.408 16.875 27 16.875C32.592 16.875 37.125 21.408 37.125 27C37.125 32.5918 32.592 37.125 27 37.125Z" fill="#FFC861"/>
<path d="M21.3047 27.2812C25.7115 27.2812 27.6328 25.4272 27.6328 20.9531C27.6328 25.4272 29.5407 27.2812 33.9609 27.2812C29.5407 27.2812 27.6328 29.1891 27.6328 33.6094C27.6328 29.1891 25.7115 27.2812 21.3047 27.2812Z" fill="#FFAB61" stroke="#FFAB61" stroke-width="1.05469" stroke-linejoin="round"/>
<path d="M20.6719 27C25.0787 27 27 25.1459 27 20.6719C27 25.1459 28.9079 27 33.3281 27C28.9079 27 27 28.9079 27 33.3281C27 28.9079 25.0787 27 20.6719 27Z" fill="#FF7B61" stroke="#FF7B61" stroke-width="1.05469" stroke-linejoin="round"/>
<path d="M13.5 44C15.433 44 17 42.433 17 40.5C17 38.567 15.433 37 13.5 37C11.567 37 10 38.567 10 40.5C10 42.433 11.567 44 13.5 44Z" fill="#55A1FF"/>
<path d="M40.5 44C42.433 44 44 42.433 44 40.5C44 38.567 42.433 37 40.5 37C38.567 37 37 38.567 37 40.5C37 42.433 38.567 44 40.5 44Z" fill="#55A1FF"/>
<path d="M13.5 17C15.433 17 17 15.433 17 13.5C17 11.567 15.433 10 13.5 10C11.567 10 10 11.567 10 13.5C10 15.433 11.567 17 13.5 17Z" fill="#55A1FF"/>
<path d="M40.5 17C42.433 17 44 15.433 44 13.5C44 11.567 42.433 10 40.5 10C38.567 10 37 11.567 37 13.5C37 15.433 38.567 17 40.5 17Z" fill="#55A1FF"/>
</g>
<defs>
<filter id="filter0_d_7918_7778" x="0" y="0" width="54" height="55" filterUnits="userSpaceOnUse" color-interpolation-filters="sRGB">
<feFlood flood-opacity="0" result="BackgroundImageFix"/>
<feColorMatrix in="SourceAlpha" type="matrix" values="0 0 0 0 0 0 0 0 0 0 0 0 0 0 0 0 0 0 127 0" result="hardAlpha"/>
<feOffset dy="1"/>
<feComposite in2="hardAlpha" operator="out"/>
<feColorMatrix type="matrix" values="0 0 0 0 0.94902 0 0 0 0 0.94902 0 0 0 0 0.94902 0 0 0 1 0"/>
<feBlend mode="normal" in2="BackgroundImageFix" result="effect1_dropShadow_7918_7778"/>
<feBlend mode="normal" in="SourceGraphic" in2="effect1_dropShadow_7918_7778" result="shape"/>
</filter>
</defs>
</svg>
