<svg width="20" height="20" viewBox="0 0 20 20" fill="none" xmlns="http://www.w3.org/2000/svg">
<path d="M10 20C15.523 20 20 15.523 20 10C20 4.47698 15.523 0 10 0C4.47698 0 0 4.47698 0 10C0 15.523 4.47698 20 10 20Z" fill="#265DF5"/>
<path d="M13.0073 13.7036L12.985 14.7173L12.9203 17.6439V17.7568C7.97497 13.477 7.13252 12.4331 6.98648 12.1158L6.98144 12.105C6.96418 12.0453 6.95986 11.982 6.96921 11.9209C6.97281 11.8979 6.97785 11.8756 6.9836 11.8533C6.98864 11.8353 6.99367 11.818 7.00015 11.7993C7.05339 11.659 7.12893 11.5288 7.22389 11.413C7.29152 11.3252 7.36562 11.2425 7.44547 11.1648C7.61598 10.9964 7.79799 10.841 7.9908 10.6993C8.08648 10.6274 8.18648 10.5554 8.29224 10.4835C8.49655 10.3439 8.71742 10.2043 8.94619 10.0684C10.7232 11.7259 12.9786 13.677 13.0073 13.7036Z" fill="url(#paint0_linear_3517_176284)"/>
<path d="M13.073 4.08984L13.0507 5.10711L13.0392 5.61071L13.0161 6.62294L13.0046 7.13085L12.9823 8.1438C12.9471 8.15819 10.6917 9.03301 8.95354 10.0668C8.72476 10.2028 8.50462 10.3424 8.29959 10.4819C8.19455 10.5539 8.09383 10.6258 7.99815 10.6978C7.80534 10.8395 7.62333 10.9956 7.45282 11.1632C7.37369 11.2409 7.29959 11.3237 7.23124 11.4114C7.07441 11.6114 6.98016 11.8078 6.96649 11.9927L6.9852 11.1474V11.1416L6.98879 11.0107V10.9632L7.0039 10.4301L7.03268 9.3733L7.04635 8.85675L7.07512 7.80927C7.43268 6.34308 12.4823 4.32222 13.073 4.08984Z" fill="white"/>
<path d="M8.41758 5.21249C9.23701 5.21249 9.90176 4.54774 9.90176 3.72831C9.90176 2.90889 9.23701 2.24414 8.41758 2.24414C7.59816 2.24414 6.93341 2.90889 6.93341 3.72831C6.93341 4.54774 7.59816 5.21249 8.41758 5.21249Z" fill="white"/>
<defs>
<linearGradient id="paint0_linear_3517_176284" x1="11.9836" y1="15.2396" x2="6.11814" y2="8.47339" gradientUnits="userSpaceOnUse">
<stop stop-color="white"/>
<stop offset="1" stop-color="#265DF5"/>
</linearGradient>
</defs>
</svg>
