<svg width="44" height="44" viewBox="0 0 44 44" fill="none" xmlns="http://www.w3.org/2000/svg">
<rect width="44" height="44" rx="8" fill="white"/>
<path d="M17.2003 24.6918C16.8898 24.3818 16.7796 24.5418 16.7095 24.6118C14.9466 26.3718 13.3841 30.6218 14.2054 30.2018C17.2203 28.6918 17.7212 29.1418 19.484 27.3818C19.5541 27.3118 19.7044 27.2018 19.3939 26.8918L17.2003 24.7018V24.6918Z" fill="#FB813E"/>
<path d="M26.6959 24.661C26.6158 24.411 26.7861 24.281 26.8562 24.211C30.7425 20.021 33.2165 14.431 31.3835 12.601C29.5606 10.781 24.1418 13.321 19.9349 17.181C19.8548 17.261 19.6845 17.401 19.3941 17.341L18.0819 17.031C17.7213 16.941 17.2005 17.091 16.9401 17.351L12.1523 22.141C11.8919 22.401 11.972 22.671 12.3426 22.721L15.8182 23.261C16.1888 23.321 16.7097 23.151 16.9701 22.891C16.9701 22.891 17.1504 22.711 17.3307 22.891C18.3223 23.881 20.1653 25.721 21.1169 26.671C21.3072 26.861 21.1169 27.041 21.1169 27.041C20.8564 27.301 20.6862 27.821 20.7463 28.191L21.2871 31.661C21.3472 32.031 21.6077 32.111 21.8681 31.851L26.6659 27.061C26.9263 26.801 27.0765 26.281 26.9864 25.921L26.6859 24.671L26.6959 24.661ZM25.6242 18.471C24.8129 17.661 24.8129 16.341 25.6242 15.531C26.4355 14.721 27.7576 14.721 28.569 15.531C29.3803 16.341 29.3803 17.661 28.569 18.471C27.7576 19.281 26.4355 19.281 25.6242 18.471Z" fill="#282B30"/>
</svg>
